<?xml version="1.0" encoding="UTF-8"?><svg id="Camada_1" xmlns="http://www.w3.org/2000/svg" viewBox="0 0 808.5 1075.06"><defs><style>.cls-1{fill:#fff;stroke-width:0px;}</style></defs><path class="cls-1" d="M630.35,724.24c11.79-2.69,21.68-5.77,31.95-7.07,1.91-.24,3.9-.4,5.78-.13,1.35.19,2.23,1.44,1.45,2.94-.58,1.11-2.09,2.75-2.85,1.62-2.93-4.38-6.34-1.26-9.15-.65-46.63,10.23-87.18,32.59-123.68,62.8-7.66,6.34-14.84,13.25-22.31,19.82-1.49,1.31-2.55,3.58-5.61,3.04.03-3.2,2.27-5.03,4.16-6.86,31.91-30.78,67.33-56.25,109.38-71.5,4.01-1.46,7.19-3.23,9.22-7.37,1.98-4.05,5.37-7.22,8.82-10.27,12.84-11.34,26.73-21.29,41-30.68,9.66-6.36,16.49-15.16,22.58-24.69,7.75-12.13,5.59-38.75-9.9-49.07-24.65-16.42-50.83-23.16-80-17.1-6.35,1.32-12.26,3.81-18.19,8-.27-5.16,3.17-6.49,6.1-7.89,16.03-7.62,32.95-8.33,50.11-5.65,16.43,2.57,32.4,7.17,48.44,11.51,8.09,2.19,15.7.07,22.69-4.9,3.61-2.57,3.91-5.24,2.64-8.88-1.58-4.54-4.68-7.71-8.73-10.06-16.52-9.59-33.83-17.26-52.25-22.52-11.14-3.18-21.89-7.71-34.78-9.64,4.01-2.63,7.05-3.7,10.45-2.63,23.26,7.27,47.12,13.01,68.43,25.41,6.34,3.69,12.21,8.01,19.61,9.63,4.85,1.06,6.93-.58,7.29-5.29.65-8.39-3.64-14.04-10.4-17.95-13.72-7.94-28.55-13.46-43.59-18.17-14.82-4.64-29.76-8.98-46.02-12.27,2.86-2.43,4.69-3.78,7.55-3.03,24.2,6.38,48.82,11.42,71.54,22.44,5.39,2.62,10.42,6,15.56,9.13,2.03,1.23,3.96,2.64,6.37,3.02,5.97.94,11.63-1.74,12.93-6.1,1.58-5.28-2.59-12.93-8.63-15.98-18.08-9.14-37.25-14.85-57.09-18.7-14.42-2.8-28.76-6-43.38-7.68-2.63-.3-5.18-1.35-9.39-2.49,6.48-2.25,11.42-2.03,16.13-1.17,24.4,4.47,49.02,8.08,72.71,15.77,9.91,3.22,18.81,8.66,27.52,14.23,3.49,2.23,6.76,3.33,10.16,1.33,3.79-2.23,3.55-6.37,2.48-9.94-2.6-8.66-7.61-14.96-16.54-18.53-31.56-12.62-64.86-16.02-98.19-19.44-2.48-.25-4.95-.65-8.66-1.15,5.2-3.38,9.95-3.6,14.45-3.1,25.09,2.75,50.29,4.96,74.84,11.32,9.03,2.34,17.45,6.41,25.45,10.98,5.64,3.22,8.84.33,12.63-2.49,4.05-3.01,5.02-6.72,2.76-11.37-2.21-4.54-5.53-7.48-10.41-9.03-19.43-6.17-39.3-10.14-59.54-12.41-13.73-1.54-27.24-4.71-41.18-4.8-5.62-.03-11.17,1.48-17.5.13,6.32-2.29,12.3-3.41,18.37-3.22,22.67.69,45.2,2.44,67.6,6.54,14.59,2.67,28.33,7.23,41.8,13.12,5.06,2.21,7.09-1.2,8.09-5.32,2.16-8.83-6.99-21.9-17.4-24.23-20.47-4.58-41.1-7.87-62.16-8.56-16.1-.53-32.21-1.25-48.45-1.75,3.02-2.52,6.38-4.49,10.13-4.45,28.25.29,56.58-.5,84.54,4.94,6.14,1.2,11.93,3.56,18.06,4.9,8.86,1.93,15.34-.62,17.45-8.3,1.76-6.4-4.15-14.71-11.82-15.98-20.31-3.37-40.77-4.8-61.36-3.65-18.72,1.05-37.43,2.23-56.14,3.43-2.55.16-5.08.75-8.49,1.27,3.29-4.23,7.36-5.74,11.46-6.11,33.1-3,66.19-6.72,99.47-2.53,4.47.56,8.84,1.87,13.3,2.59,4.02.65,7.42-.94,9.38-4.38,1.9-3.35.69-6.94-1.41-9.76-7.01-9.42-15.8-15.87-28.17-16.1-25.58-.48-50.93,1.38-75.96,6.86-9.31,2.04-19.23,1.48-27.75,7.09,1.37-5.29,5.95-5.85,9.66-7.46,10.64-4.65,22.29-4.8,33.4-7.36,17.99-4.16,36.3-5.03,54.59-6.45,27.15-2.1,45.73-17.47,60.07-39.2,2.45-3.71,3.24-7.96,2.87-12.43-.57-6.97-4.23-10.39-11.18-11.01-8.71-.78-16.65,2.4-24.64,4.77-43.91,13.03-85.65,31.09-124.87,54.87-6.58,3.99-13.17,8.3-23.1,7.45,14.86-4.84,25.02-14.33,36.1-22.52,10.15-7.51,21.77-13.13,33.75-16.22,25.29-6.52,42.98-23.12,59.65-41.4,12.26-13.45,23.96-27.43,35.75-41.31,5.16-6.08,7.84-13.28,8.35-21.3.17-2.68-.53-3.64-3.26-2.88-21.71,6.08-44.34,9.31-62.86,24.26-11.91,9.61-24.39,18.68-36.85,27.48-17.34,12.24-30.44,28.3-45.07,43.02-2.28,2.29-4.71,4.44-7.14,6.58-8.24,7.27-17.02,14.02-21.93,24.7-2.01-2.43-.53-3.49.23-4.55,4.28-5.97,8.19-12.29,13.04-17.76,23.56-26.56,48.18-51.96,77.31-72.69,11.63-8.27,23.06-16.71,35.33-24.07,7.69-4.61,12.71-12.44,17.82-19.54,10.09-14.01,19.02-28.79,25.73-44.88,3.9-9.35,5.2-19.13,7.12-28.84.92-4.65-1.09-6.15-5.74-5.57-3.53.44-6.75,1.39-9.77,3.14-19.34,11.22-37.16,24.09-51.86,41.41-12.42,14.64-26.78,27.62-39.82,41.76-15.35,16.65-30.32,33.65-45.18,50.74-2.91,3.35-4.85,7.66-6.76,11.75-9.69,20.74-23.61,38.63-37.67,56.44-2.9,3.67-5.45,7.62-8.97,12.59.22-8.25,4.98-12.47,8.7-17.24,14.26-18.28,26.55-37.66,36.65-58.66,9.05-18.82,24.25-33.49,38.34-48.6,12.38-13.28,24.53-26.82,37.37-39.63,13.69-13.67,26.69-28.06,42.01-40.18,6.06-4.79,10.43-12.75,13.43-20.14,5.1-12.56,8.71-25.74,8.5-39.65-.08-5.48-2.46-6.5-6.83-4.67-7.56,3.16-15.48,5.82-22.4,10.07-10.64,6.52-20.5,14.32-30.66,21.6-34.99,25.1-60.17,58.99-84.98,93.14-13.37,18.41-24.72,38.68-26.2,61.9-1.12,17.66-7.49,32.5-16.28,47.1-5.13,8.53-13.68,13.48-20.36,22.1-.3-6.18,3.53-8.44,6.15-11.25,11.85-12.74,21.06-26.82,23.24-44.57.47-3.85.84-7.74.84-11.61,0-17.91,7.65-33.12,17.05-47.54,22.96-35.2,47.79-69,78.68-97.76,11.21-10.44,23.57-19.66,35.69-29.08,8.6-6.68,14.56-15.1,19.06-24.85,3.53-7.65,7.48-15.11,11.18-22.68,2.92-5.98,6.02-13.24,1.62-18.37-4.03-4.7-11.07-.69-16.15,1.32-13.8,5.47-25.2,15.03-37.01,23.73-6.95,5.12-12.76,11.88-19.99,16.47-14.39,9.16-24.77,22.64-37.73,33.29-1.16.95-2.2,2.1-3.11,3.3-20.18,26.68-43.71,50.82-60.43,80.13-9.32,16.33-14.43,34.04-17.99,52.34-3.95,20.3-7.99,40.58-12.17,60.84-.82,4-2.28,7.89-3.72,11.73-1.9,5.05-4.38,9.89-6.03,15-1.58,4.91-.95,10.13-.89,15.29-3.66-5.09-3.25-10.77-2.26-16.41.56-3.16,1.53-6.32,2.75-9.29,7.72-18.75,10.13-38.39,9.57-58.43-.37-12.95,3.42-24.66,8.68-36.17,8.91-19.51,18.77-38.5,31.54-55.78,20.66-27.97,40.5-56.69,66.39-80.3,15.16-13.82,30.4-27.62,47.08-39.63,14.7-10.59,19.72-26.17,22.84-42.8,1.08-5.74-3.24-4.67-6.18-3.92-9.03,2.28-17.75,5.62-25.92,10.04-5.67,3.07-11.09,6.81-16.05,10.94-28.08,23.42-54.72,48.26-77.54,77.06-20.3,25.63-34.37,54.82-49.47,83.46-8.81,16.71-15.08,34.5-19.67,52.67-4.22,16.72-11.67,32.43-14.57,49.51-1.2,7.11-1.04,13.95.28,21.14,2.35,12.79,4.07,25.84-2.06,38.52,0-3.13.04-6.26,0-9.38-.13-7.99,1.13-16.28-1.24-23.9-5.36-17.25-.68-33.39,4.46-49.4,3.97-12.38,6.27-25.01,8.71-37.7,2.49-12.92,6.38-25.61,13.25-37,15.82-26.25,27.86-54.76,46.75-79.15,19.24-24.85,41.34-47.07,63.91-68.89,8.03-7.76,17.21-14.38,24.12-23.31.78-1,1.89-1.78,2.95-2.52,13.82-9.6,29.02-16.27,45.3-20.24,9.72-2.37,13.4,1.85,11.2,11.58-2.2,9.76-6.83,18.55-11.31,28.96,8.83-4.39,16.59-8.28,24.95-10.76,9.46-2.8,11.01-1.24,13.28,8.52,1.86,8.01-.58,14.31-4.05,20.92-5.3,10.1-10.35,20.34-16.05,31.61,4.62-1.78,8.56-3,12.22-4.77,5.16-2.5,10.85-2.83,16.22-4.43,4.56-1.35,5.48,2.37,5.61,5.79.57,14.71-2.09,28.82-8.27,42.22-2.25,4.87-4.54,9.72-6.98,14.94,5.26.71,6.62-4.14,9.96-5.64,6.11-2.74,12.07-5.81,18.19-8.51,7.04-3.11,11.38-.4,10.36,7.36-1.06,8.06-3.53,15.96-5.71,23.85-4.98,18.07-11.73,35.14-25.04,49.14-4.64,4.88-7.42,11.53-12.29,19.38,9.58-3.09,17.7-4.2,25.77-5.55,13.46-2.24,18.92,3.34,14.7,16.52-4.96,15.5-13.16,29.18-25.48,40.01-11.25,9.89-20.11,21.98-30.75,32.41-.39.38-.45,1.09-.94,2.38,7.45-2.53,14.29-4.94,21.19-7.18,13.49-4.38,27.23-6.65,41.45-4.57,5.56.81,11.16,6.27,10.87,11.68-.34,6.45-.76,13.13-4.59,18.68-11.07,16.09-22.49,31.89-41.48,39.75-1.17.49-2.22,1.29-3.19,1.87-.05,1.23.43,1.95,1.31,2.24,9.8,3.21,11.85,12.97,16.61,20.27,2.36,3.62.09,8.23-2.54,11.4-2.06,2.49-2.16,3.77-.15,6.34,7.47,9.55,6.12,19.32-4.03,26.05-3.75,2.48-2.7,3.46-.66,6.07,8.75,11.15,8.91,16.94,1.15,29.04-.88,1.38-1.48,2.64-.89,4.2,3.54,9.32-1.58,15.37-8.12,20.56-2.83,2.24-3.65,3.8-2.03,7.39,5.34,11.83,4.56,14.29-6.05,22.97-1.6,1.31-1.11,2.71-.83,4.08,1.97,9.6-2.97,15.35-10.98,18.91-3.05,1.35-3.64,2.64-3.12,5.76,1.83,10.96,1.46,11.57-8.55,16.79-1.62.85-1.31,1.8-1.27,3.09.33,10.2.29,10.44-9.3,14.01-4.38,1.63-8.47,2.44-5.56,8.94,1.52,3.4-.59,6.78-4.39,8.24-1.91.74-4.05,1.21-2.06,3.86,7.27,9.7,4.03,20.67,1.4,30.16-4.11,14.84-12.61,27.51-26.51,36.04-17.73,10.87-34.12,23.63-49.41,37.76-.61.56-1.11,1.24-2.92,3.28ZM694.12,600.55c-.15.61-.3,1.22-.45,1.83,2.83,2.23,5.55,4.64,8.55,6.62,1.83,1.2,4.1,1.33,6.01-.26,1.54-1.28,1.6-3.02.88-4.68-.9-2.1-2.49-3.48-4.92-3.5-3.35-.03-6.71,0-10.06,0Z"/><path class="cls-1" d="M160,394.68c-11.51,24.56-9.14,38.83,6.9,45.77.34-2.02-1.6-2.91-2.13-4.45-.46-1.35-1.8-2.45-1.09-4.63,17.53,16.57,41.03,21.29,61.08,32.58,7.12,4.01,14.86,6.57,23.75,9.69-4.37-13.59-11.34-24.89-14.43-38.62,4.08,1.67,4.71,4.79,5.84,7.28,6.11,13.37,11.46,27.12,18.21,40.15,11.44,22.09,26.22,41.04,50.5,50.77,7.2,2.88,13.92,5.39,21.88,6.27,20.23,2.26,39.01,9.28,54.91,22.61,2.06,1.72,4.5,3.41,4.66,6.77-2.72.4-4.49-1.33-6.36-2.58-28.41-18.9-59.82-24.62-93.38-22.11-21.45,1.6-41.16,9.15-61.2,15.92-14.29,4.83-26.54,12.72-36.62,23.6-8.09,8.73-13.25,19.57-18.04,30.45-.45,1.02-.78,2.26.43,2.86,10.09,4.93,16.15,14.82,25.52,20.67,2.53,1.58,3.79.19,5.71-.83,17.09-9.19,33.8-19.52,53.91-20.69,36.33-2.13,68.28,17.36,75.94,51.93,5.99,27.04-.65,52.67-16.33,75.68-6.58,9.65-13.31,19.19-21.99,27.13-5.51,5.04-11.45,9.23-19.46,9.5,9.74-3.39,17.04-9.92,23.56-17.44,13.91-16.05,19.53-34.77,17.69-55.82-.85-9.7,1.12-19.46-.48-29.12-1.84-11.11-5.92-21.19-15.19-28.29-16.77-12.85-35.87-13.65-55.49-9.67-14.36,2.91-28.48,6.91-41.73,13.41-4.19,2.06-7.57,1.91-10.97-1.73-5.38-5.76-12.71-8.89-19.12-13.26-3.31-2.26-4.52-.99-4.62,2.69-.24,9.32,4.53,16.97,8.19,24.96,1.99,4.33,4.6,8.51,4.59,13.37-.04,19.63,9.67,35.61,19.48,51.36,8.88,14.25,20.9,25.81,34.18,36.05,2.99,2.31,4.4,1.67,5.58-1.71,3.62-10.31,4.24-20.83,4.08-31.72-.16-10.69-2.6-20.36-7.03-29.91-2.32-5-.31-9.95,3.02-13.88,9.69-11.41,22.61-14.57,36.83-13.04,6.19.67,7.39,3.91,5.37,10.16-1.89,5.83-4.07,11.36-9.13,15.33-8.86,6.96-18.44,6.98-27.19-.1-1.31-1.06-2.27-2.67-5.13-2.97,1,4.12,1.29,8.26,2.97,11.72,7.53,15.58,5.18,31.56,2.62,47.61-.28,1.76-1.8,4.26,1.13,4.77,2.09.36,2.26-2.18,2.72-3.76,2.51-8.43,5.59-16.74,5.67-25.72.83,8.97-.28,17.72-3.3,26.14-2.45,6.84-.93,12.6,5.14,17.01,1.88,1.36,3.96,2.43,7.16,4.36-12.73,1.24-13.81-10.54-20.48-15.08-1.48.32-1.82,1.74-2.25,2.81-1.93,4.83-4.79,4.78-8.61,2.12-11.81-8.23-22.08-18.13-30.8-29.48-13.62-17.73-23.31-37.29-25.49-59.98-.46-4.77-1.81-9.38-3.91-13.64-4.74-9.59-8.25-19.47-8.55-30.29-.02-.85-.01-1.93-.49-2.51-9.18-11.17-1.46-21.7,1.93-31.8,5.98-17.84,19.65-29.5,35.21-39.19,23.24-14.48,48.61-22.09,75.81-24.16,6.84-.52,13.63-1.78,20.58-2.71-.75-2.8-2.96-3.64-4.72-4.61-20.62-11.42-33.11-29.94-43.63-50.09-2.08-3.98-4.38-5.97-8.92-7.1-16.2-4.04-31.59-10.5-46.41-18.11-6.44-3.31-12.91-5.74-19.97-7.18-9.78-2-18.03-6.98-24.48-14.69-3.12-3.72-6.08-8.25-5.6-12.82.83-7.81-3.77-10.19-9.46-11.71-4.92-1.31-9.04-4.03-13.45-6.26-4.65-2.35-9.36-4.09-14.83-3.79-6.42.35-12.25-2.23-17.89-5.08-14.05-7.1-28.31-13.82-42.08-21.43-12.41-6.86-25.02-13.47-35.83-22.96-8.67-7.61-12.33-17.6-14.32-28.32-.98-5.29,2.32-9.46,7.42-10.64,5.16-1.19,10.47-1.76,15.87.62,3.64,1.6,7.96,1.86,12.03,2.23,14.86,1.34,28.58,5.86,41.46,13.44,4.18,2.46,9.18,3.61,13.88,5.12,11.71,3.76,23.47,7.38,35.21,11.08,3.91,1.23,7.09,3.86,10.91,5.43,15.61,6.43,31.83,5.36,48.03,4.73,18.25-.71,36.67.1,53.87,5.64,15.66,5.05,31.58,10.62,45.86,19.13,14.49,8.63,29.86,8.84,45.78,8.01,15.18-.79,30.21-2.66,44.94-6.29,15.04-3.7,30.44-6.52,44.07-14.59,2.42-1.43,4.97-2.74,5.58-5.91.21-1.08.65-2.24,2.03-1.91,1.17.28,1.53,1.42,1.61,2.55.18,2.7-1.04,5.05-1.97,7.45-4.38,11.33-12.25,20.26-20,29.29-1.06,1.23-2.84,2.09-2.74,4.54,5.38.92,10.83,1.76,16.24,2.82,2.1.41,4.62.75,6.08,2.07,7.9,7.16,16.04,3.58,24.21.99,1.23-.39,2.41-.96,3.66-1.31,3.22-.91,7.57-4.4,9.41-1.94,2.42,3.25-1.75,6.91-3.6,10.2-.93,1.65-2.94,2.63-3.07,4.89,1.75,2.07,5.19.52,6.95,3.44-5.44,4.23-12.77-3.12-17.82,3.25,3.02-6.22,8.88-9.64,12.59-16.74-9.28,3.98-17.73,6.15-26.72,6.18-11.42.04-22.96-.05-33.63,5.14-.99.48-2.16,1.06-2.73-.27-.62-1.45.55-2.43,1.61-3.17,5.71-3.99,12.43-4.75,19.05-5.71,2.32-.34,4.7-.33,7.06-.48.1-2.69-1.84-2.26-3.13-2.48-4.47-.76-8.99-1.22-13.44-2.12-5.58-1.12-10.35-.44-15.06,3.36-5.12,4.13-10.82,7.68-17.99,8.76,19.81-11.35,34.84-27.19,45.58-47.61-6.79,2.81-13.31,6.2-20.48,8.26-17.24,4.95-34.62,9.01-52.12,12.88-12.24,2.71-22.55,10.66-32.17,18.86-.32.28-.73.62-.81.99-2.08,9.63-6.65,5.6-11.59,2.39-9.97-6.48-21.23-6.52-33.97-5.36,13.08-7.32,24.65-6.31,35.82.62,3.49,2.17,5.17,1.89,7.83-1.37,5.44-6.67,12.95-11.04,20.13-16.07-6.65.17-12.74-2.19-19.65-.81-7.64,1.52-15.16-2.2-22.3-5.49-12.75-5.87-24.99-12.74-37.93-18.26-19.11-8.15-39.26-9.84-59.56-11.09-6.04-.37-12.1-.35-18.14-.69-3.24-.18-6.3.16-11.01,2.21,20.74,6.65,41.12,6.36,60.55,11-5.75,2.58-11.51.82-17.06.07-30.49-4.12-60.13-11.55-88.28-24.29-1.37-.62-2.8-1.16-4.26-1.56-21.26-5.86-41.81-13.76-62.37-21.61-12.04-4.6-24.96-4.79-37.36-7.67-7.23-1.68-11.58,4.93-9.44,12.86,3.32,12.28,11.83,20.57,22.04,27,22.34,14.07,46.28,25.22,69.84,37.02,3.61,1.81,7.93,3.77,11.69,3.38,10.4-1.08,18.14,4.02,26.11,9.14,1.8,1.16,3.8,2.03,5.78,2.87,5.08,2.16,8.95,1.79,11.24-4.29,1.25-3.33,3.69-6.28,8.18-8.6ZM321.36,731.77c1.55-2.19,2.21-2.8,2.46-3.54,1.74-5.11,3.87-10.14,4.99-15.39,5.66-26.47,8.87-52.7-14.93-73.02-16.12-13.77-34.32-21.52-56.31-18.7-18.73,2.4-34.37,12.16-50.91,19.8-3.75,1.73-6.03,1.72-9.05-1.07-6.65-6.14-13.59-11.97-20.51-17.81-1.4-1.18-3.13-2.98-5.16-1.68-1.97,1.26-3.7,3.16-3.82,5.69-.16,3.54,2.5,5.32,5.1,6.92,6.8,4.18,13.93,8,19.29,14.04,5,5.63,9.72,6.08,16.68,2.67,23.88-11.7,48.93-17.98,75.86-13.89,5.48.83,10.34,2.57,14.99,5.5,20.1,12.67,24.99,32,23.24,53.9-.93,11.61-1.71,23.19-1.93,36.57ZM262.17,702.56c11.07.11,18.57-5.76,21.48-15.97.76-2.69.18-3.83-2.73-4.36-7.97-1.45-15.41-.02-22.33,3.88-4.15,2.34-10.85,4.2-9.63,9.77,1.38,6.33,8.55,5.95,13.22,6.68Z"/><path class="cls-1" d="M177.77,1013.25c-.85.01-1.89.34-2.5-.03-1.23-.76-.08-1.47.5-1.83,6.66-4.14,4.81-7.81-.92-10.91,1.87-2.49,3.59-2.02,5.4-.89,2.73,1.71,5.82,3.02,8.12,5.18,2.79,2.62,5.08,2.5,7.95.49,1.39-.97,3.05-1.58,4.64-2.22,4.66-1.88,7.59-3.89,4.98-10.06-2.37-5.63-1.77-11.85,2-17.24-1.22,5.78-1.1,11.55.02,17.33.46,2.39,1.48,3.86,3.8,1.78,3.93-3.53,8.58-6.46,10.73-11.77-10.01-2.19-10.65-3.89-5.07-12.11,1.29-1.9,3.43-3.33,3.63-6.91-6.84,1.95-9.34,7.91-13.29,12.17.73-3.39,2.04-6.47,4.53-9,.85-.87,2.2-1.75,1.76-3.17-.57-1.85-2.45-1.52-3.82-1.49-7.17.14-14.32,1.38-21.5.11l.16.16c-3.93-6.59-2.57-10.84,2.24-17.83,14.32-20.77,26.44-43.09,36.61-66.33,9.65-22.06,15.64-44.88,14.56-69.17-.36-8.11.6-15.94,3.76-23.45.97-2.31,1.47-5.04,4.61-5.59.22.47.66.99.54,1.2-6.24,10.79-4.4,22.53-4.1,34.11.54,21.35-4.2,41.68-12.8,61.06-11.4,25.71-23.29,51.2-42.17,72.6-1.2,1.36-3.34,2.79-2.21,4.95,1.12,2.13,3.14,3.37,5.78,3.61,8.57.78,17.2,1.02,25.56,3.63,3.6,1.12,5.22-2.38,7.04-4.65,7.52-9.35,12.43-20.23,17.49-30.96,12.54-26.6,24.79-53.32,29.97-82.63,1.43-8.11,4.68-15.64,8.88-21.78-9.4,57.14-31.25,109.77-67.91,156.61,3.61,1.52,6.31.59,8.82-.08,9.03-2.43,18.22-3.18,27.53-3.79,4.84-.31,8.36,2.21,12.55,3.12,4.09.89,6.63-.31,8.58-3.76,13.59-24.14,32.67-43.35,53.85-60.82,22.2-18.31,38.72-41.15,51.56-66.77,1.45-2.89,3.05-5.72,4.63-8.54.17-.3.72-.39,1.43-.75.63,3.28-.92,5.92-2.06,8.53-10.66,24.47-24.68,46.64-45.23,64.07-4.19,3.55-3.68,5.58-.12,8.95,27.81,26.3,60.36,38.63,98.78,33.99.74-.09,1.48-.24,2.27.03-13.4,6.61-27.53,6.86-41.58,3.46-24.95-6.04-48.18-15.61-64.63-36.73-2.63-3.38-4.28-1.27-6.24.35-18.79,15.51-35.78,32.66-48.01,53.98-2.51,4.37-5.57,6.34-10.63,6.95-12.02,1.44-20.9,15.25-18.09,27.17,1.9,8.07,5.11,15.48,12.66,22.53-8.91-4.07-14.47-12.93-15.89-24.3-1.33-10.6,3.79-18.55,12.64-24.88-7.55-3.3-14.15-2.73-21.09-2.01-7.62.78-12.79,2.92-17.2,10.03-5.71,9.21-15.35,14.91-24.81,20.28-2.06,1.17-4.05,1.02-5.49.09-6.32-4.14-10.19-1.27-13.41,4.14l.2-.2Z"/><path class="cls-1" d="M532.28,855.76c33.66,10.77,66.67,23.49,95.48,44.87,30.27,22.45,62.22,42.24,95.09,60.56,5.26,2.93,10.87,5.29,16.42,7.66,3.98,1.7,5.3.11,3.9-3.87-2.37-6.76-5.35-13.13-9.97-18.76-14.18-17.29-31.87-29.56-52.52-37.83-3.13-1.25-6.66-1.93-9.11-4.98,1.45-2.24,3.6-1.46,5.13-.89,27.01,10.15,52.64,22.58,69.12,47.72,6.35,9.68,11.98,20.02,14.45,31.65.59,2.78,1.87,5.7-.94,7.72-2.56,1.83-5.43.82-7.96-.6-8.84-4.98-18-9.51-26.41-15.14-23.5-15.76-49.33-28.34-70.62-46.99-34.57-30.27-74.62-50.47-116.24-68.36-1.97-.85-3.88-1.84-5.82-2.77Z"/><path class="cls-1" d="M505.04,307.29c-14.56,21.56-12.8,44.96-15.06,67.5-1.54,15.39-4.97,30.15-11.5,44.27-11.06,23.93-20.98,48.33-29.57,73.28-3.44,10-5.12,20.01-4.74,30.5.5,13.61-1.31,27.11-2.24,40.65-.22,3.25-.5,9.11-3.39,8.59-3.67-.67-.59-5.53-.12-8.34,2.61-15.59,3.43-31.2,2.61-47-.65-12.46,3.89-23.96,7.06-35.89,6.89-25.93,19.04-49.49,29.73-73.73,2.81-6.37,4.8-12.85,6.66-19.52,2.34-8.4.63-16.65.68-24.94.11-19.76,5.49-37.77,16.82-53.97.21-.29.73-.36,3.05-1.41Z"/><path class="cls-1" d="M633.98,770.28c24.94-12.55,51.45-16.31,76.8-28.15-6.81-2.18-12.04-1.46-17.1-.83-59.04,7.42-111.85,30.02-159.26,65.7-.95.72-1.7,2.11-3.73,1.12,2.51-5.27,7.04-8.56,11.47-11.75,23.62-17.03,49.31-30.26,76.37-40.86,25.47-9.99,51.65-17.06,79.08-18.86,4.76-.31,9.49-.49,14.2.5,1.73.36,3.45.77,3.99,2.78.59,2.22-.55,3.81-2.22,4.97-1.59,1.1-3.26,2.17-5.05,2.87-23.14,9.1-46.83,16.48-70.89,22.74-.58.15-1.25-.06-3.67-.22Z"/><path class="cls-1" d="M597.86,651.44c-2.15-.69-2.2-2.5-2.02-4.18.19-1.7.62-3.41,1.21-5.02,7.46-20.26,36.87-35.92,57.95-30.91,21.56,5.13,29.9,20.56,20.52,40.46-11.09,23.52-28.48,42.05-49.45,57.25-1.32.96-2.88,1.6-4.56,2.08,9.96-10.8,20.48-20.98,29.8-32.27,7.02-8.51,13.91-17.12,18.8-27.09,9.63-19.66.17-35.18-21.95-36.82-17.5-1.3-44.96,12.09-50.31,36.51Z"/><path class="cls-1" d="M604.79,904.86c4.62.06,6.18,2.69,7.69,4.9,6.75,9.83,12.56,20.2,16.5,31.51,1.29,3.69,2.65,7.84-.81,10.9-3.63,3.22-7.42.63-10.81-1.12-7.38-3.8-13.68-9.16-19.44-15.02-21.84-22.2-43.15-44.91-65.51-66.6-1.49-1.45-3.32-2.84-3.63-5.99,3.64.95,6.17,3.14,8.68,5.25,17.43,14.63,33.02,31.15,48.55,47.72,9.18,9.78,18.37,19.55,29.24,27.54,1.56,1.15,3.17,2.3,4.91,3.13,1.63.78,3.4,2.62,5.27.84,1.5-1.43.43-3.29-.07-4.89-3.89-12.29-10.5-23.19-17.57-33.83-.81-1.22-1.66-2.4-3-4.33Z"/><path class="cls-1" d="M495.41,854.77c6.85,8.47,11.62,18.12,16.65,27.61,12.7,23.97,27.47,46.54,45.18,67.13,5.1,5.93,10.63,11.37,17.69,15.02,4.3,2.22,6.19.69,5.89-3.83-.46-6.97-2.23-13.62-5.23-19.95-.68-1.43-2.41-3.43-.22-4.43,2.01-.92,2.75,1.59,3.47,3.03,3.72,7.46,5.81,15.37,5.62,23.74-.16,6.68-3.62,8.88-9.87,6.39-6.98-2.79-12.5-7.69-17.6-13.02-21.14-22.07-37.16-47.67-51.18-74.63-4.47-8.6-8.71-17.32-10.39-27.07Z"/><path class="cls-1" d="M654.9,870.42c9.29,2.79,18.39,5.85,27.84,7.72,8.25,1.64,16.48,3.42,24.74,5.01,1.73.33,4.12,1.65,5.13-.68.74-1.72-1.31-3-2.48-4.19-13.28-13.49-28.91-23.42-46.93-29.04-35.81-11.18-72.21-19.11-110.09-17.36-1.15.05-2.57.73-3.65-1.21,2.15-2,4.95-2.29,7.59-2.31,47.42-.5,92.72,8.44,134.69,31.27,8.75,4.76,16.37,11.26,22.96,18.82,1.73,1.98,3.52,4.21,2.09,6.96-1.3,2.49-4.03,2.27-6.38,2.11-13.27-.87-25.95-4.38-38.25-9.21-5.87-2.3-12.24-3.55-17.26-7.9Z"/><path class="cls-1" d="M597.91,786.71c10.97-3.8,21.81-1.71,32.58-.01,23.38,3.7,44.87,12.28,64.15,26.08,3.31,2.37,6.27,5.28,9.14,8.18,2.01,2.03,3.42,4.61,2.31,7.64-1.19,3.24-3.9,4.38-7.13,4.66-5.63.49-11.19-.05-16.75-.97-5.4-.89-10.82-1.69-16.14-3.28,4.6-1.72,9.17-.87,13.72-.65,4.74.23,9.48.71,14.21.56,2.37-.07,5.87.61,6.74-2.41.71-2.46-1.99-4.12-3.77-5.59-3.16-2.6-6.4-5.14-9.83-7.37-23.34-15.19-49.21-22.6-76.78-24.68-4.22-.32-8.55.11-12.47-2.15Z"/><path class="cls-1" d="M452.52,512.41c-2.81-39.25,43.53-100.76,86.66-109.09-45.52,23.1-75.69,58.39-86.66,109.09Z"/><path class="cls-1" d="M451.4,574.66c12.76,43.56,33.78,80.93,74.85,105.06-4.99,2.49-8.16-.26-11.16-2.06-10.27-6.18-18.72-14.55-26.85-23.26-19.91-21.34-31.14-46.92-36.71-75.26-.17-.84-.2-1.72-.23-2.58-.02-.63.06-1.27.09-1.91Z"/><path class="cls-1" d="M485.44,909.47c-4.37,7.87-5.63,15.61-12.63,22.07,13.13-26.38,13.98-29.41,11.18-67.61,2.78,7.65,3.27,14.16,3.19,20.79-.24,20.94,4.57,40.24,18.53,56.53,3.25,3.79,6.8,7.26,11.24,9.69,3.93,2.15,6.41,1.38,7.57-3.31,1.12-4.53.28-8.96-.39-13.84,4.39,4.51,4.88,17.19,1.05,20.8-3.04,2.87-6.45,1.94-9.64.28-7.08-3.69-12.28-9.49-16.92-15.8-6.2-8.43-10.82-17.65-13.18-29.6Z"/><path class="cls-1" d="M140.23,1027.65c-1.21.74-2.41,1.48-3.58,2.2-2.29-1.94.88-4.11-.6-6.16-5.7.98-10.29,4.11-14.84,7.39-1.17.84-2.64,2.29-3.95.71-1.26-1.51.53-2.63,1.32-3.84,4.48-6.85,11.32-9.72,18.92-11.35,1.81-.39,4.01.24,5.28-2.03-3.32-4.33-10.01.18-13.55-4.96,4.42-2.05,7.77,1.23,11.54,1.28,3.32.04,5.4-.54,7.89-2.71,6.13-5.36,12.82-9.59,21.72-7.09,3.04.86,4.66,2.3,3.94,5.46-.74,3.28-3.05,2.82-5.57,2.17-5.67-1.46-11.1-.5-16.24,2.17-1.12.58-1.98,1.83-3.14,2.19-5.29,1.63,2.44,7.06-2.25,8.14-3.96.91-6.11,2.8-6.92,6.59,0,0,.03-.14.03-.14Z"/><path class="cls-1" d="M598.5,721.06c20.2-24.29,41.93-47.26,52.64-79.31,1.83,4.47.98,7.49.13,10.46-2.52,8.83-6.93,16.77-11.79,24.45-8.45,13.38-17.87,26.03-29.2,37.14-3.32,3.25-6.75,6.52-11.78,7.25Z"/><path class="cls-1" d="M407.16,939.22c-12.69-34.44-13.42-69.46-4.9-104.91-3.84,35.25-2.21,70.21,4.9,104.91Z"/><path class="cls-1" d="M595.38,382.61c-28.39-13.89-56.16-15.4-84.38.43-.18-4.56,3.05-6.22,5.75-7.97,6.48-4.18,13.82-6.15,21.34-7.03,17.41-2.05,34.5-1.44,50.25,7.65,1.67.96,3.25,2.11,4.75,3.33.94.77,2.19,1.41,2.29,3.58Z"/><path class="cls-1" d="M521.6,435.03c-8.04,7.45-17.04,13.06-24.63,20.46-13.59,13.25-22.65,29.19-28.38,47.16-.42,1.32.03,3.56-2.03,3.51-2.35-.06-2.18-2.24-2.19-3.94,0-.85.06-1.75.33-2.55,9.45-27.87,25.68-50.09,52.77-63.23,1.3-.63,2.75-.95,4.12-1.41Z"/><path class="cls-1" d="M436.37,590.53c.32,6.98-1.12,11.82-2.95,16.33-2.64,6.52-1.89,12.49.52,18.8,3.38,8.86,6.55,17.83,8.06,27.26.25,1.54,1.38,3.27-.31,4.91-2.72-1.46-3.46-4.26-4.58-6.71-4.3-9.41-6.54-19.61-11.37-28.87-1.94-3.72-.21-8.03.76-12.04,1.63-6.78,5.06-12.6,9.87-19.68Z"/><path class="cls-1" d="M621.25,677.04c-17.02,23.94-36.2,45.47-64.39,56.86,24.77-15.24,44.08-36.61,64.39-56.86Z"/><path class="cls-1" d="M533.95,453.19c-7.62,3.78-13.8,6.31-19.43,9.74-15.13,9.2-28.48,20.19-34.65,37.7-.36,1.03-.56,2.26-1.93,2.09-1.13-.14-1.95-1.06-1.92-2.24.05-1.69.06-3.48.59-5.06,6.23-18.62,35.79-41.09,57.34-42.23Z"/><path class="cls-1" d="M359.08,443.47c6.63-1.86,11.17,1.54,15.74,4.56,4.53,3,7.96,7.24,11.53,11.28,7.72,8.73,15.49,17.4,24.72,24.62,1.28,1,3.29,2.32,1.95,4.17-1.34,1.85-3.18.32-4.56-.57-4.54-2.94-8.57-6.51-12.44-10.29-11.89-11.63-19.77-27.6-36.95-33.77Z"/><path class="cls-1" d="M540.7,481.23c-4.95,0-9.03-.43-12.98.08-15.34,1.95-28.64,7.61-36.9,21.68-.59,1-1.1,1.98-2.36,1.52-1.12-.41-1.57-1.6-1.42-2.67.21-1.46.58-2.97,1.23-4.29,6.72-13.54,31.99-24.46,46.5-20.16,1.85.55,3.78.94,5.93,3.84Z"/><path class="cls-1" d="M583.7,515.05c9.14-9.35,17.95-18.7,21.4-31.8,2.03-7.73,3.53-15.52,4.42-23.45.21-1.83-1.27-5.17,1.97-5.06,2.6.09,2.27,3.46,2.24,5.37-.23,17.02-3.69,32.97-16.32,45.56-3.94,3.93-8.03,7.74-13.71,9.38Z"/><path class="cls-1" d="M480.76,603.79c12.88,23.76,29.48,44.43,50.97,61.06-14.33-.49-48.25-41.49-50.97-61.06Z"/><path class="cls-1" d="M449.24,662.44c11.94,18.63,25.21,36.57,30.61,58.62-10.84-19.2-23.35-37.54-30.61-58.62Z"/><path class="cls-1" d="M385.77,859.79c-4.5,25.26-5.03,50.49.49,76.61-9.83-11.83-10.21-64.84-.49-76.61Z"/><path class="cls-1" d="M258.84,1075.06c5.72-10.42,7.86-20.19,3.39-30.61-1.42-3.3.51-5.72,3.04-6.89,2.65-1.23,4.14,1.06,5.34,3.34,5.53,10.57-.96,29.36-11.76,34.16Z"/><path class="cls-1" d="M620.72,443.8c-6.06-19.86-12.41-39.49-30.7-52.06,4.3-1.48,6.7-1.21,10.87,3.07,13.25,13.56,19.95,29.91,19.83,48.99Z"/><path class="cls-1" d="M488.03,590.07c23.97,10.97,49.71,14.35,75.43,17.86-26.82,1.22-52.25-3.54-75.43-17.86Z"/><path class="cls-1" d="M560.38,851.81c26.58-.23,50.64,6.15,74.76,12.11-24.71-2.38-49.09-6.75-74.76-12.11Z"/><path class="cls-1" d="M162.73,405.87c-2.06-4.76.58-7.38,3.41-9.22,14.93-9.68,30.8-12.56,49.44-5.72-19.8.5-38.34-.27-52.85,14.94Z"/><path class="cls-1" d="M197.66,1023.46c11.99,6.89,23.54,8.14,35.93,6.33,12.14-1.77,21.24,7.5,23.27,23.63-3.04-4.84-4.74-8.96-7.41-12.52-4.81-6.4-10.7-8.88-18.57-7.28-9.63,1.95-18.86-.04-27.74-3.79-2.21-.94-4.79-1.91-5.48-6.36Z"/><path class="cls-1" d="M567.68,815.53c23.74-3.69,47.33.54,70.96,4.23-.05.75-.11,1.49-.16,2.24-23.74-2.17-47.49-4.34-70.79-6.47Z"/><path class="cls-1" d="M93.55,1004.64c12.92-2.16,20.96-14.3,33.76-16.05,2.6-.35,5.08-.8,7.65.11,1.91.68,3.8,1.22,3.35,3.89-.44,2.58-2.3,2.91-4.38,2.67-5.42-.61-10.88-.47-15.99,1.21-2.94.97-8.63.56-6.32,6.91.42,1.15-.87,1.22-1.64,1.23-5.48.04-10.96.02-16.44.02Z"/><path class="cls-1" d="M586.62,531.93c4.89-3.45,9.87-6.79,14.65-10.39,9.07-6.82,15.76-15.21,17.15-26.98.19-1.59-.07-4.31,2.06-4.12,2.62.23,1.69,3.07,1.67,4.81-.09,7.37-2.73,13.84-7.33,19.55-6.29,7.81-17.53,15.05-28.2,17.12Z"/><path class="cls-1" d="M476.42,580.41c-7.91-3.87-12.46-9.55-16.48-15.67-7.39-11.25-11.99-23.43-11.27-37.17.07-1.39-.35-3.39,1.87-3.38,1.16,0,1.52,1.41,1.5,2.53-.42,20.75,9.99,36.6,23.15,51.21.27.31.39.76,1.23,2.48Z"/><path class="cls-1" d="M493.62,875.76c5.28,6.63,8.45,14.42,12.26,21.86,4.43,8.66,8.69,17.41,15.44,24.62.93.99,2.78,2.2.96,3.67-1.15.92-2.48-.32-3.3-1.26-2.44-2.74-5.02-5.4-7.06-8.42-8.37-12.41-14.9-25.7-18.29-40.48Z"/><path class="cls-1" d="M377.03,736.85c14.16-14.69,34.37-24.51,35.09-49,1.39,8.79-.88,19.62-5.58,26.47-7.32,10.67-19.76,14.75-29.52,22.53Z"/><path class="cls-1" d="M535.85,503.87c-13.4-10.05-23.84-5.12-33.83,3.29-1.18,1-2.34,3.22-4.26,1.45-1.79-1.65-.19-3.29.9-4.47,7.31-7.88,16.18-12.29,27.12-10.69,4.79.7,8.92,3.01,10.07,10.41Z"/><path class="cls-1" d="M529.45,884.82c3.65,2.11,5.51,5.28,7.77,7.99,8.15,9.73,16.17,19.57,25.64,28.09,1.15,1.04,3.4,2.12,1.64,4.04-1.27,1.39-2.81.07-3.92-.91-12.16-10.74-23.05-22.55-30.9-36.9-.26-.48-.14-1.17-.24-2.31Z"/><path class="cls-1" d="M567.83,711.72c-8.49,12.64-36.28,26.78-46.21,23.09,17.42-3.75,30.58-15.64,46.21-23.09Z"/><path class="cls-1" d="M435.23,830.63c-10.84-8-21.21-35.39-16.49-45.84,4.12,16.91,9.06,31.83,16.49,45.84Z"/><path class="cls-1" d="M164.45,1027.11c3.14,5.2,11.03,5.31,12.27,3.25,4.49-7.45,7.89-.09,11.57-.41,1.85-.16,3.66-.73,5.8-1.18-1.13,2.91-3.26,4.84-5.48,3.98-4.97-1.92-9.27-.17-13.47,1.6-6.7,2.82-11.21-.01-15-5.03-3.02-4-6.9-7.79-5.64-14.02,5.3,2.91,4.57,9.85,9.96,11.81,0,0,0,0,0,0Z"/><path class="cls-1" d="M588.81,790.09c-15.25,5.98-30.38,12.19-46,20.46,5.7-9.46,33.57-21.97,46-20.46Z"/><path class="cls-1" d="M404.91,451.73c3.49,10.27,8.4,18.99,16.86,25.3,1.59,1.19,3.77,5.22,6.44.43.86-1.54,2.31.18,2.86,1.18,1.02,1.87,1.18,4.01-1.23,4.82-1.53.52-3.46.45-5.06.05-9.27-2.3-21.01-18-20.69-27.57.05-1.41.54-2.81.82-4.22Z"/><path class="cls-1" d="M485.14,752.3c10.37,3.28,19.92,30.01,18.62,52.28-2.64-10.39-4.82-19.12-7.09-27.82-2.3-8.82-6.46-16.79-11.54-24.46Z"/><path class="cls-1" d="M421.87,644.55c-4.63,17.17,3.53,34.51-.69,51.7-2.63-17.24-7.37-34.48.69-51.7Z"/><path class="cls-1" d="M446.06,819.69c2.39,13.21,9.45,24.47,15.42,37.41-11.66-6.69-20.27-27.57-15.42-37.41Z"/><path class="cls-1" d="M583.89,435.51c-3.2-15.43-12.38-25.41-26.6-31.48,6.15-2.54,10.48,1.15,14.67,4.28,8.98,6.69,14.29,15.27,11.93,27.2Z"/><path class="cls-1" d="M499.18,530.35c-10.84-5.3-22.07-8.19-34.18-6.53-1.27.18-2.86.2-3.19-1.38-.48-2.33,1.53-2.69,3.13-3.26,10.19-3.58,27.52,1.79,34.24,11.17Z"/><path class="cls-1" d="M491.48,545.97c12.59,7.69,26.79,11.7,40.33,18.63-11.25,1.55-37.1-10.17-40.33-18.63Z"/><path class="cls-1" d="M553.34,422.92c13.95-1.31,23.83,16.67,19.76,33.18-2.72-12.7-5.93-25.13-19.76-33.18Z"/><path class="cls-1" d="M573,485.31c7.26-10.69,11.79-22.44,14.77-34.88,4.42,10.79-3.74,29.59-14.77,34.88Z"/><path class="cls-1" d="M526.4,511.84c.18,3.03-1.06,4.84-3.39,5.32-3.44.71-1.61-1.83-1.75-3.23-.33-3.15-2.58-3.46-4.66-2.23-2.5,1.49-6.58,2.54-4.94,6.75.59,1.5,2.8,2.5.2,3.78-2.32,1.14-4.22-.03-5.4-2.13-1.97-3.51,1.68-9.69,7.47-12.81,4.74-2.55,9.81-1.46,11.81,2.59.37.76.54,1.62.65,1.95Z"/><path class="cls-1" d="M177.56,1013.45c4.7.12,9.1-2.53,13.87-1.58,2.06.41,4.39.65,5.15,3.16.44,1.46-.73,2.37-1.53,3.32-2,2.35-3.77.71-5.62-.36-4.32-2.52-7.84-.98-11.81,1.51-4.27,2.68-6.54,9.04-13.16,7.61-.01,0,0,0,0,0,4.43-4.62,8.86-9.23,13.3-13.85,0,0-.19.19-.19.19Z"/><path class="cls-1" d="M367.75,757.53c1.23-8.44,19.25-21.75,31.03-23.05-10.24,8.94-21.59,14.7-31.03,23.05Z"/><path class="cls-1" d="M203.9,592.46c-2.97,5.83-7.55,10.66-9.45,18.46,7.66-5.67,13.91-11.21,22.34-13.67-7.03,5.62-13.96,11.38-21.16,16.79-2.46,1.85-3.4-.54-3.7-2.57-.76-5.14,6.44-16.59,11.98-19.01Z"/><path class="cls-1" d="M274.33,666.89c-15.44-3.74-28.64,2.97-36.64,17.65,3.09-18.28,21.23-27.66,36.64-17.65Z"/><path class="cls-1" d="M370.77,928.34c-5.87-14.07-8.85-28.5-3.41-43.58-.33,14.62.83,29.1,3.41,43.58Z"/><path class="cls-1" d="M510.58,538.36c15.08,5.27,30.66,8.79,45.92,13.46-16.47-.45-31.82-4.75-45.92-13.46Z"/><path class="cls-1" d="M598.47,464.95c.62-9.95,1.46-19.76.9-29.64-.06-1.07.07-2.4,1.28-2.67,1.7-.38,2.18,1.15,2.4,2.35,1.95,10.49,1.95,20.73-4.59,29.96Z"/><path class="cls-1" d="M512.82,618.31c8.33,9.69,15.62,20.23,24,29.9-11.92-6.7-19.54-16.98-24-29.9Z"/><path class="cls-1" d="M409.76,492.51c8.61,4.38,13.56,9.74,16.68,16.84,1.06,2.42,1.36,4.99.53,7.56-.57,1.78-.89,4.54-3.14,4.29-3.22-.36-1.19-3.08-.99-4.6.66-4.99-1.73-8.65-4.58-12.28-2.59-3.31-6.18-5.88-8.52-11.81Z"/><path class="cls-1" d="M233.93,416.08c-3.8-1.57-5.19-4.14-7.07-6.11-4.08-4.28-8.46-7.95-14.51-9.03-1.38-.25-3.5-.17-3.19-2.25.29-1.93,2.36-1.44,3.78-1.48,7.48-.21,12.41,4.13,16.58,9.61,1.9,2.5,3.68,5.14,4.41,9.26Z"/><path class="cls-1" d="M626.85,573.02c-11.29,3.12-22.84,4.81-32.98,11.63.79-8.21,21.65-15.22,32.98-11.63Z"/><path class="cls-1" d="M239.64,1025.66c-9.95-5.4-19.46-4.93-29.02-3.94-.88.09-1.76.18-2.2-.75-.61-1.29.36-1.97,1.22-2.6,6.25-4.52,24.45-.75,30.01,7.29Z"/><path class="cls-1" d="M310.13,423.72c8.4-2.6,19.04.75,22.47,6.35.89,1.45,2.14,3.16.49,4.66-2.22,2.02-2.85-.63-3.8-1.75-4.76-5.59-12.15-5.9-19.16-9.27Z"/><path class="cls-1" d="M188.73,962.7c.17,4.06-2.43,6.91-4.77,9.57-6.7,7.62-13.96,14.65-22.69,20.07-3.56,2.21-6.67,2.45-10.69.15,17.04-1.02,24.62-14.3,34.31-24.68,1.44-1.54,1.93-3.9,4.01-4.96,0,0-.16-.16-.16-.16Z"/><path class="cls-1" d="M232.14,988.38c-3.1,9.25-13.39,16.99-22.71,16.87,8.58-5.75,16.25-10.53,22.71-16.87Z"/><path class="cls-1" d="M483.44,572.46c-6.58-2.23-12.15-6.15-16.62-11.62-.96-1.17-2.03-2.66-.31-3.89,1.24-.89,2.47.1,3.38,1.06,4.57,4.84,9.12,9.72,13.55,14.45Z"/><path class="cls-1" d="M339.49,442.13c9.28,1.5,16.48,6.44,22.34,13.59-9.03-1.91-14.45-9.79-22.34-13.59Z"/><path class="cls-1" d="M163.61,993.79c6.89-5.1,13.79-10.2,20.68-15.3.36.49.71.99,1.07,1.48-5.97,6.42-12.73,11.76-20.76,15.39-.33-.52-.66-1.05-.99-1.57Z"/><path class="cls-1" d="M275.08,573.52c8.99-4.62,18.5-5.31,28.34-3.45-9.45,1.15-18.9,2.3-28.34,3.45Z"/><path class="cls-1" d="M158.61,998.47c-6.55,4.8-15.85-.27-21.13,7.12,4.1-7.76,14.04-10.97,21.13-7.12Z"/><path class="cls-1" d="M247.41,1019.29c-7.23-4.58-9.27-13.08-5.47-21.46-.25,7.65,1.76,14.76,5.47,21.46Z"/><path class="cls-1" d="M472.53,548.07c-2.55,1.43-4.31-.38-5.94-1.49-1.85-1.25-6.2-1.99-4.02-5.03,1.83-2.54,4.57.61,6.57,2.01,1.54,1.08,3.13,2.32,3.39,4.5Z"/><path class="cls-1" d="M357.26,922.52c-.97-6.43-6.62-12.01-3.36-20.99,1.41,8.23,2.06,14.72,3.36,20.99Z"/><path class="cls-1" d="M243.14,576.91c5.58-3.94,10.87-3.41,16.09-3.17-4.69,2.06-9.31,4.38-16.09,3.17Z"/><path class="cls-1" d="M201.14,979.04c-.33,4.72.55,9.43.55,14.17-4.38-4.48-2.09-9.35-.55-14.17Z"/><path class="cls-1" d="M140.2,1027.79c3.71-3.85,8.53.49,12.41-2.07-3.64,4.56-7.92,3.74-12.36,1.9-.02.04-.05.17-.05.17Z"/><path class="cls-1" d="M597.08,570.78c1.77-4.96,5.46-6.85,10.52-6.41-3.51,2.14-7.01,4.27-10.52,6.41Z"/></svg>