<?xml version="1.0" encoding="UTF-8"?><svg id="Camada_1" xmlns="http://www.w3.org/2000/svg" viewBox="0 0 813.57 1080"><defs><style>.cls-1{fill:#000;stroke-width:0px;}</style></defs><path class="cls-1" d="M633.41,727.86c11.79-2.69,21.68-5.78,31.94-7.08,1.91-.24,3.9-.4,5.78-.13,1.35.19,2.23,1.44,1.45,2.94-.58,1.11-2.09,2.75-2.85,1.62-2.93-4.39-6.34-1.27-9.15-.65-46.63,10.24-87.18,32.63-123.68,62.88-7.66,6.35-14.86,13.24-22.29,19.86-1.51,1.35-2.74,3.25-5.62,3.36.03-3.55,2.27-5.38,4.16-7.21,31.91-30.82,67.33-56.32,109.38-71.58,4.01-1.46,7.19-3.23,9.22-7.38,1.98-4.05,5.37-7.23,8.82-10.28,12.84-11.36,26.73-21.31,41-30.72,9.66-6.36,16.49-15.18,22.58-24.72,7.75-12.15,5.59-38.79-9.9-49.13-24.65-16.44-50.83-23.19-80-17.12-6.35,1.32-12.26,3.81-18.19,8.01-.27-5.16,3.17-6.5,6.1-7.9,16.03-7.63,32.95-8.34,50.11-5.65,16.43,2.57,32.4,7.18,48.44,11.52,8.09,2.19,15.7.07,22.69-4.9,3.61-2.57,3.91-5.24,2.64-8.89-1.58-4.55-4.68-7.72-8.73-10.08-16.52-9.6-33.83-17.28-52.25-22.55-11.14-3.18-21.89-7.72-34.78-9.65,4.01-2.63,7.04-3.7,10.45-2.64,23.26,7.28,47.12,13.02,68.43,25.44,6.34,3.69,12.21,8.02,19.61,9.64,4.85,1.06,6.93-.58,7.29-5.3.65-8.4-3.64-14.06-10.4-17.97-13.72-7.95-28.57-13.42-43.58-18.2-14.8-4.71-29.92-8.39-45.53-12.7,2.37-2.02,4.2-3.37,7.06-2.61,24.2,6.39,48.82,11.44,71.54,22.47,5.39,2.62,10.42,6.01,15.56,9.14,2.03,1.24,3.96,2.64,6.37,3.02,5.97.94,11.63-1.74,12.93-6.1,1.58-5.29-2.58-12.95-8.62-16-18.08-9.15-37.25-14.87-57.09-18.72-14.42-2.8-28.75-6.07-43.39-7.63-2.75-.29-5.28-1.16-8.41-2.89,5.5-1.91,10.44-1.69,15.15-.83,24.4,4.47,49.02,8.09,72.71,15.79,9.91,3.22,18.81,8.67,27.52,14.25,3.49,2.23,6.76,3.34,10.16,1.33,3.79-2.24,3.55-6.38,2.48-9.95-2.6-8.67-7.61-14.98-16.54-18.55-31.56-12.64-64.86-16.04-98.19-19.47-2.36-.24-4.7-.61-7.05-.95-.12-.02-.21-.28-.61-.85,4.2-2.73,8.95-2.95,13.45-2.45,25.09,2.76,50.29,4.97,74.84,11.33,9.03,2.34,17.45,6.42,25.45,10.99,5.64,3.22,8.84.33,12.63-2.49,4.05-3.02,5.02-6.73,2.76-11.38-2.21-4.55-5.53-7.49-10.4-9.04-19.43-6.18-39.3-10.16-59.54-12.43-13.73-1.54-27.24-4.72-41.18-4.8-5.62-.03-11.17,1.48-17.5.13,6.32-2.29,12.3-3.41,18.37-3.23,22.67.7,45.2,2.45,67.6,6.55,14.59,2.67,28.33,7.24,41.8,13.14,5.06,2.22,7.09-1.2,8.09-5.33,2.16-8.84-6.99-21.92-17.39-24.25-20.47-4.59-41.1-7.88-62.16-8.57-16.1-.53-32.21-1.25-48.45-1.76,3.02-2.52,6.38-4.5,10.13-4.46,28.25.29,56.58-.5,84.54,4.95,6.14,1.2,11.93,3.57,18.06,4.9,8.86,1.93,15.34-.62,17.45-8.31,1.76-6.41-4.15-14.73-11.82-16-20.31-3.37-40.77-4.81-61.36-3.65-18.72,1.05-37.43,2.23-56.14,3.43-2.55.16-5.08.75-8.49,1.28,3.29-4.24,7.36-5.74,11.45-6.12,33.1-3,66.19-6.73,99.47-2.53,4.47.56,8.84,1.87,13.3,2.59,4.02.65,7.42-.94,9.38-4.39,1.91-3.36.69-6.94-1.41-9.77-7.01-9.43-15.8-15.89-28.16-16.12-25.58-.48-50.93,1.39-75.96,6.87-9.31,2.04-19.23,1.49-27.75,7.1,1.37-5.3,5.95-5.85,9.65-7.47,10.64-4.65,22.29-4.8,33.4-7.37,17.99-4.16,36.31-5.04,54.59-6.46,27.15-2.11,45.73-17.49,60.07-39.25,2.45-3.71,3.24-7.97,2.87-12.44-.57-6.98-4.23-10.4-11.18-11.03-8.71-.78-16.65,2.4-24.64,4.78-43.91,13.05-85.68,31.08-124.84,54.98-10.21,6.23-13.54,7.42-23.21,7.44,14.93-4.87,25.1-14.37,36.18-22.57,10.15-7.52,21.77-13.15,33.75-16.24,25.29-6.53,42.98-23.14,59.65-41.45,12.26-13.47,23.96-27.46,35.75-41.36,5.16-6.08,7.84-13.29,8.35-21.32.17-2.69-.52-3.65-3.26-2.88-21.71,6.09-44.34,9.32-62.86,24.29-11.91,9.62-24.39,18.7-36.85,27.51-17.34,12.26-30.44,28.33-45.07,43.07-2.28,2.3-4.7,4.46-7.14,6.59-8.29,7.23-16.88,14.17-22.08,24.56-1.87-2.25-.38-3.31.38-4.38,4.28-5.98,8.18-12.3,13.04-17.78,23.56-26.59,48.17-52.02,77.31-72.78,11.63-8.28,23.06-16.73,35.33-24.09,7.69-4.61,12.71-12.46,17.82-19.56,10.09-14.03,19.02-28.83,25.73-44.93,3.9-9.36,5.2-19.15,7.12-28.88.92-4.66-1.09-6.16-5.74-5.58-3.53.44-6.75,1.39-9.77,3.14-19.34,11.23-37.16,24.12-51.86,41.46-12.42,14.66-26.78,27.65-39.82,41.81-15.35,16.67-30.32,33.69-45.18,50.8-2.91,3.35-4.85,7.67-6.76,11.77-9.69,20.77-23.61,38.67-37.67,56.51-2.9,3.68-5.45,7.63-8.97,12.6.22-8.26,4.97-12.48,8.69-17.26,14.26-18.3,26.55-37.7,36.65-58.73,9.05-18.85,24.25-33.53,38.34-48.66,12.38-13.29,24.53-26.85,37.37-39.68,13.69-13.68,26.69-28.09,42.01-40.23,6.06-4.8,10.43-12.76,13.43-20.16,5.1-12.58,8.71-25.77,8.5-39.69-.08-5.48-2.46-6.51-6.83-4.68-7.56,3.16-15.48,5.83-22.4,10.08-10.64,6.53-20.5,14.33-30.66,21.63-34.99,25.13-60.17,59.06-84.98,93.25-13.37,18.43-24.72,38.73-26.2,61.97-1.12,17.68-7.53,32.52-16.27,47.16-5.12,8.58-13.88,13.31-20.34,22.63-.33-6.7,3.51-8.96,6.12-11.77,11.85-12.75,21.06-26.86,23.24-44.62.47-3.85.84-7.75.84-11.62,0-17.93,7.65-33.16,17.05-47.6,22.96-35.24,47.79-69.08,78.68-97.87,11.21-10.45,23.57-19.69,35.69-29.12,8.6-6.69,14.56-15.12,19.06-24.88,3.53-7.66,7.47-15.13,11.17-22.71,2.92-5.98,6.02-13.26,1.62-18.39-4.03-4.71-11.07-.7-16.15,1.32-13.8,5.47-25.2,15.05-37.01,23.76-6.95,5.12-12.76,11.89-19.99,16.49-14.39,9.17-24.77,22.67-37.73,33.33-1.16.95-2.2,2.11-3.11,3.31-20.18,26.72-43.71,50.89-60.43,80.23-9.32,16.35-14.43,34.08-17.99,52.41-3.95,20.33-7.99,40.63-12.17,60.91-.82,4-2.09,7.99-3.75,11.73-4.28,9.68-9.05,19.17-6.66,30.44-3.89-5.19-3.49-10.88-2.49-16.52.56-3.17,1.53-6.33,2.75-9.31,7.72-18.77,10.13-38.44,9.57-58.5-.37-12.97,3.42-24.69,8.68-36.21,8.91-19.53,18.77-38.55,31.54-55.85,20.66-28,40.5-56.76,66.39-80.4,15.16-13.84,30.4-27.65,47.08-39.68,14.7-10.6,19.72-26.2,22.84-42.85,1.08-5.75-3.23-4.68-6.18-3.93-9.03,2.28-17.75,5.62-25.92,10.05-5.67,3.07-11.09,6.81-16.05,10.95-28.08,23.45-54.72,48.32-77.54,77.15-20.3,25.65-34.37,54.89-49.47,83.56-8.81,16.73-15.08,34.54-19.67,52.74-4.23,16.74-11.67,32.47-14.57,49.57-1.21,7.11-1.04,13.97.28,21.17,2.35,12.81,4.07,25.87-2.06,38.57,0-3.13.04-6.26,0-9.39-.13-8,1.12-16.29-1.23-23.93-5.31-17.26-.7-33.43,4.45-49.46,3.98-12.39,6.27-25.03,8.72-37.75,2.49-12.93,6.38-25.64,13.25-37.05,15.82-26.28,27.86-54.83,46.75-79.24,19.24-24.88,41.34-47.12,63.9-68.98,8.03-7.77,17.21-14.4,24.12-23.34.78-1,1.89-1.78,2.95-2.52,13.82-9.62,29.02-16.29,45.3-20.26,9.72-2.37,13.42,1.86,11.2,11.59-2.22,9.76-6.79,18.59-11.36,29.02,8.88-4.42,16.64-8.32,25-10.79,9.46-2.8,11.02-1.24,13.28,8.53,1.86,8.02-.57,14.33-4.04,20.95-5.3,10.12-10.35,20.37-16.05,31.64,4.62-1.78,8.55-3,12.21-4.77,5.16-2.5,10.85-2.83,16.22-4.43,4.56-1.36,5.48,2.37,5.61,5.79.57,14.73-2.09,28.86-8.27,42.27-2.25,4.88-4.54,9.73-6.98,14.96,5.26.72,6.62-4.14,9.96-5.64,6.11-2.74,12.07-5.82,18.19-8.52,7.04-3.11,11.38-.4,10.36,7.37-1.06,8.07-3.53,15.98-5.71,23.88-4.98,18.09-11.73,35.18-25.04,49.2-4.64,4.89-7.42,11.55-12.29,19.4,9.57-3.09,17.7-4.21,25.77-5.55,13.46-2.24,18.92,3.35,14.71,16.53-4.96,15.52-13.16,29.22-25.48,40.06-11.25,9.9-20.11,22.01-30.75,32.45-.39.38-.45,1.09-.95,2.39,7.45-2.53,14.29-4.94,21.19-7.18,13.49-4.38,27.23-6.66,41.45-4.58,5.56.81,11.16,6.28,10.87,11.7-.34,6.45-.76,13.14-4.58,18.7-11.07,16.11-22.49,31.93-41.48,39.8-1.17.49-2.21,1.29-3.19,1.87-.05,1.23.43,1.95,1.31,2.24,9.81,3.21,11.85,12.99,16.61,20.29,2.36,3.62.09,8.24-2.54,11.41-2.06,2.49-2.17,3.77-.15,6.35,7.47,9.56,6.13,19.34-4.03,26.08-3.74,2.48-2.71,3.46-.66,6.08,8.75,11.16,8.91,16.97,1.16,29.08-.88,1.38-1.49,2.65-.89,4.21,3.54,9.33-1.58,15.39-8.11,20.58-2.82,2.24-3.66,3.8-2.03,7.39,5.35,11.84,4.56,14.31-6.05,23-1.6,1.31-1.11,2.71-.83,4.08,1.97,9.61-2.97,15.37-10.98,18.93-3.05,1.35-3.64,2.64-3.12,5.77,1.83,10.97,1.46,11.58-8.55,16.82-1.62.85-1.31,1.8-1.27,3.1.33,10.21.29,10.45-9.3,14.02-4.38,1.63-8.47,2.44-5.56,8.95,1.52,3.41-.59,6.78-4.39,8.25-1.91.74-4.05,1.21-2.06,3.86,7.27,9.71,4.03,20.69,1.4,30.2-4.11,14.86-12.61,27.55-26.51,36.08-17.73,10.88-34.12,23.66-49.41,37.8-.61.56-1.11,1.24-2.92,3.28ZM695.41,604.02c4.05,4.12,6.51,6.82,9.8,8.48,1.98,1,4.13,1.31,6.05-.26,1.55-1.27,1.63-3.01.92-4.68-.89-2.1-2.47-3.51-4.9-3.54-3.36-.04-6.73-.01-11.86-.01Z"/><path class="cls-1" d="M163.06,397.91c-11.51,24.59-9.14,38.88,6.99,45.87-.26-3.28-4.03-5.12-3.36-9.16,17.57,16.62,41.06,21.35,61.11,32.65,7.12,4.01,14.86,6.58,23.75,9.7-4.37-13.61-11.34-24.92-14.43-38.66,4.08,1.67,4.71,4.79,5.84,7.29,6.11,13.38,11.46,27.15,18.21,40.2,11.44,22.11,26.22,41.09,50.5,50.83,7.2,2.89,13.92,5.39,21.88,6.28,20.23,2.26,39.01,9.29,54.91,22.64,2.06,1.73,4.5,3.41,4.66,6.77-2.72.4-4.49-1.34-6.36-2.58-28.41-18.92-59.82-24.65-93.38-22.14-21.45,1.61-41.16,9.16-61.2,15.94-14.29,4.84-26.54,12.74-36.62,23.62-8.09,8.74-13.25,19.59-18.04,30.48-.45,1.02-.78,2.26.43,2.86,10.09,4.94,16.15,14.83,25.52,20.69,2.53,1.58,3.79.2,5.71-.84,17.09-9.2,33.8-19.54,53.91-20.72,36.33-2.13,68.28,17.38,75.94,51.99,5.99,27.07-.65,52.73-16.33,75.77-6.58,9.66-13.31,19.22-21.99,27.17-5.51,5.04-11.45,9.24-19.46,9.51,9.74-3.4,17.04-9.93,23.56-17.46,13.91-16.07,19.53-34.82,17.69-55.89-.85-9.72,1.12-19.49-.48-29.16-1.84-11.12-5.92-21.22-15.19-28.32-16.77-12.86-35.87-13.66-55.49-9.69-14.36,2.91-28.48,6.92-41.73,13.43-4.19,2.06-7.57,1.91-10.97-1.73-5.38-5.77-12.71-8.9-19.12-13.28-3.31-2.26-4.52-.99-4.62,2.69-.24,9.33,4.53,16.99,8.19,24.99,1.99,4.34,4.6,8.52,4.59,13.39-.04,19.65,9.67,35.65,19.48,51.42,8.88,14.27,20.9,25.84,34.18,36.1,2.99,2.31,4.4,1.67,5.58-1.71,3.62-10.32,4.24-20.85,4.08-31.76-.16-10.7-2.6-20.39-7.03-29.94-2.32-5-.31-9.97,3.02-13.9,9.69-11.42,22.61-14.59,36.83-13.05,6.19.67,7.39,3.91,5.37,10.17-1.89,5.84-4.07,11.37-9.13,15.35-8.86,6.97-18.44,6.98-27.19-.1-1.31-1.06-2.27-2.67-5.13-2.97,1,4.13,1.29,8.27,2.97,11.73,7.53,15.6,5.18,31.6,2.62,47.67-.28,1.77-1.8,4.26,1.13,4.77,2.09.36,2.26-2.19,2.73-3.76,2.51-8.44,5.59-16.76,5.67-25.76.83,8.99-.28,17.74-3.3,26.18-2.45,6.84-.93,12.62,5.14,17.03,1.88,1.36,3.97,2.44,7.15,4.37-12.73,1.25-13.81-10.55-20.48-15.1-1.48.32-1.82,1.74-2.25,2.81-1.93,4.83-4.79,4.79-8.61,2.12-11.81-8.24-22.08-18.16-30.8-29.51-13.62-17.75-23.31-37.34-25.49-60.05-.46-4.78-1.81-9.39-3.91-13.66-4.74-9.6-8.25-19.49-8.55-30.33-.02-.85-.01-1.93-.49-2.52-9.17-11.18-1.46-21.73,1.93-31.84,5.99-17.87,19.65-29.53,35.21-39.24,23.24-14.5,48.61-22.12,75.81-24.19,6.84-.52,13.63-1.78,20.58-2.72-.75-2.8-2.96-3.64-4.72-4.62-20.62-11.43-33.11-29.98-43.63-50.15-2.08-3.99-4.38-5.97-8.92-7.11-16.2-4.04-31.59-10.51-46.41-18.13-6.44-3.32-12.91-5.74-19.97-7.19-9.78-2-18.03-6.99-24.49-14.7-3.12-3.73-6.08-8.26-5.6-12.84.83-7.82-3.77-10.2-9.46-11.72-4.92-1.31-9.04-4.03-13.45-6.27-4.65-2.36-9.36-4.09-14.83-3.79-6.42.35-12.25-2.23-17.89-5.09-14.05-7.11-28.31-13.84-42.08-21.46-12.41-6.87-25.02-13.49-35.83-22.99-8.67-7.62-12.33-17.63-14.32-28.36-.98-5.3,2.32-9.47,7.42-10.65,5.16-1.19,10.47-1.76,15.87.62,3.64,1.6,7.96,1.86,12.03,2.23,14.86,1.34,28.58,5.87,41.46,13.46,4.18,2.47,9.18,3.61,13.88,5.13,11.71,3.77,23.47,7.39,35.21,11.09,3.91,1.23,7.09,3.86,10.91,5.44,15.61,6.44,31.83,5.36,48.03,4.74,18.25-.71,36.67.1,53.87,5.65,15.66,5.05,31.58,10.64,45.86,19.15,14.49,8.64,29.86,8.85,45.78,8.02,15.18-.79,30.21-2.66,44.94-6.29,15.04-3.71,30.44-6.53,44.07-14.6,2.42-1.43,4.97-2.74,5.58-5.92.21-1.09.65-2.24,2.03-1.91,1.17.28,1.53,1.42,1.61,2.56.18,2.7-1.04,5.05-1.97,7.46-4.38,11.34-12.25,20.29-20,29.33-1.06,1.23-2.84,2.09-2.74,4.55,5.38.92,10.83,1.76,16.24,2.82,2.1.41,4.62.75,6.08,2.07,7.9,7.17,16.04,3.58,24.21.99,1.23-.39,2.41-.96,3.66-1.32,3.22-.91,7.57-4.4,9.41-1.94,2.43,3.25-1.68,6.95-3.62,10.19-.97,1.62-2.21,3.08-3.31,4.6,2.02,2.39,5.46.84,7.22,3.77-5.44,4.23-12.77-3.13-17.82,3.26,3.02-6.23,8.88-9.65,12.58-16.76-9.28,3.98-17.73,6.15-26.72,6.19-11.42.04-22.96-.05-33.63,5.15-.99.48-2.16,1.07-2.73-.27-.62-1.45.55-2.44,1.61-3.18,5.71-3.99,12.43-4.75,19.05-5.72,2.32-.34,4.7-.33,7.06-.48.1-2.69-1.84-2.26-3.13-2.48-4.47-.76-8.99-1.23-13.44-2.12-5.58-1.13-10.35-.44-15.06,3.37-5.12,4.14-10.82,7.69-17.99,8.77,19.81-11.36,34.84-27.22,45.58-47.66-6.79,2.81-13.31,6.21-20.48,8.27-17.24,4.96-34.62,9.02-52.12,12.9-12.24,2.71-22.55,10.68-32.17,18.88-.32.28-.73.62-.81.99-2.08,9.64-6.65,5.61-11.59,2.39-9.97-6.49-21.23-6.53-33.97-5.37,13.08-7.32,24.65-6.32,35.82.62,3.49,2.17,5.17,1.9,7.83-1.37,5.44-6.68,12.95-11.05,20.13-16.09-6.65.17-12.74-2.19-19.65-.82-7.64,1.52-15.16-2.2-22.3-5.49-12.75-5.88-24.99-12.76-37.93-18.28-19.11-8.16-39.26-9.85-59.56-11.11-6.04-.37-12.09-.39-18.14-.67-3.22-.15-6.34-.1-10.49,2.37,20.23,6.5,40.6,6.21,60.04,10.85-5.75,2.58-11.51.82-17.06.07-30.49-4.13-60.13-11.56-88.28-24.32-1.37-.62-2.8-1.16-4.26-1.56-21.26-5.86-41.81-13.77-62.37-21.64-12.03-4.6-24.96-4.79-37.36-7.68-7.23-1.68-11.58,4.94-9.44,12.88,3.32,12.29,11.83,20.59,22.04,27.03,22.34,14.09,46.28,25.25,69.84,37.07,3.61,1.81,7.93,3.77,11.69,3.38,10.4-1.08,18.14,4.02,26.11,9.15,1.8,1.16,3.8,2.03,5.78,2.87,5.08,2.17,8.95,1.79,11.24-4.29,1.25-3.33,3.69-6.29,8.18-8.62ZM324.56,734.06c2.95-1.39,3.04-4.02,3.77-6.12,3.8-10.86,5.55-22.06,6.99-33.51,3.06-24.29-5.57-43.04-25.1-56.51-14.97-10.33-31.45-16.28-50.5-13.23-18.35,2.94-33.93,12.18-50.23,19.86-3.47,1.64-5.67,1.69-8.52-.93-6.67-6.12-13.57-12.01-20.51-17.83-2.03-1.71-4.23-3.99-7.08-.51-2.64,3.23-3.16,6.1.06,9.03,1.26,1.15,2.79,2.01,4.24,2.94,6.16,3.97,12.88,7.34,17.62,13.05,5.16,6.22,10.22,6.1,17.19,2.74,23.75-11.43,48.53-17.61,75.27-13.81,11.04,1.57,19.45,7.13,26.41,14.88,11.63,12.95,13.67,28.93,12.09,45.58-1.07,11.33-1.8,22.66-1.7,34.36ZM264.96,706.14c11.28.26,19.41-6.13,21.88-16.29.74-3.05-.65-3.63-3.19-4.09-7.98-1.45-15.42.12-22.29,4.09-4.08,2.36-10.77,4.11-9.27,9.93,1.52,5.9,8.36,5.68,12.87,6.36Z"/><path class="cls-1" d="M180.94,1017.11c-1.01.05-2.02.09-3.31.15q6.66-7.57.6-13.26c1.52-2.06,3.23-1.61,5.05-.47,2.73,1.71,5.83,3.02,8.13,5.19,2.78,2.62,5.08,2.53,7.95.51,1.39-.97,3.05-1.58,4.64-2.22,4.66-1.88,7.6-3.88,5-10.07-2.38-5.64-1.78-11.87,2-17.27-1.22,5.78-1.1,11.56.02,17.35.46,2.39,1.48,3.86,3.8,1.78,3.93-3.53,8.58-6.47,10.73-11.79-10.01-2.19-10.65-3.89-5.07-12.13,1.29-1.9,3.43-3.34,3.63-6.92-6.84,1.96-9.34,7.92-13.29,12.19.73-3.4,2.04-6.48,4.53-9.01.85-.87,2.2-1.75,1.76-3.17-.57-1.85-2.45-1.52-3.82-1.49-7.17.14-14.32,1.38-21.5.11l.16.16c-3.94-6.6-2.5-10.85,2.24-17.85,15.26-22.53,28.49-46.48,38.86-71.83,8.12-19.85,13.08-40.32,12.32-61.92-.3-8.72.13-17.31,3.77-25.44,1.02-2.27,1.45-5.04,4.63-5.53.22.49.64,1.01.52,1.22-5.94,10.39-4.6,21.63-4.15,32.86.88,22.29-4.21,43.48-13.26,63.65-11.35,25.29-23.04,50.45-41.72,71.49-1.2,1.35-3.33,2.78-2.11,4.96,1.18,2.11,3.2,3.29,5.83,3.54,8.36.79,16.78.92,24.93,3.52,4.31,1.37,5.96-2.53,7.97-5.19,10.8-14.31,17.36-30.88,24.76-46.97,9.68-21.07,18.11-42.6,22.19-65.62,1.47-8.3,4.72-16.03,9.21-22.63-9.8,57.47-31.37,110.35-68.31,157.38,4.18.97,7.03.22,9.83-.56,9.46-2.63,19.13-3.11,28.87-3.6,4.19-.21,6.83,2.72,10.6,3.24,3.79.52,6.3-.22,8.12-3.48,14.3-25.61,35.05-45.32,57.19-64,20.95-17.68,36.39-39.85,48.59-64.33,1.59-3.18,2.83-6.63,5.88-9.58.69,4.11-1.04,6.99-2.31,9.87-10.73,24.22-24.68,46.22-45.09,63.5-3.9,3.3-3.67,5.19-.2,8.51,28.44,27.25,62,39.05,102.52,34.14-14.74,6.9-28.94,7.01-43.08,3.57-24.74-6.02-47.76-15.56-64.13-36.45-2.46-3.14-4.03-1.96-6.23-.13-18.2,15.19-35.05,31.64-47.01,52.39-3.18,5.52-6.94,8.65-13.47,9.21-7.94.69-18.28,13.66-17.2,21.39,1.19,8.56,2.75,17.14,9.53,23.55,1,.94,2.2,2.1,1.64,4.31-8.66-6.13-12.47-14.84-13.68-24.58-1.29-10.32,3.64-18.26,12.69-24.35-7.44-3.61-14.01-2.8-20.88-2.27-7.98.62-13.13,3.41-17.67,10.43-5.77,8.94-15.14,14.54-24.4,19.84-2.32,1.33-4.47,1.17-6.05.1-6.27-4.27-9.76-.93-12.88,4.14-.02.02.16-.16.16-.16Z"/><path class="cls-1" d="M672.91,907.17c4.87-1.87,7.35-.88,9.71.08,21.32,8.66,41.96,18.42,57.8,35.97,11.54,12.78,18.8,27.8,23.38,44.25.59,2.13.82,4.55-1.2,5.99-2.59,1.85-5.42,1.03-7.96-.39-8.67-4.86-17.52-9.44-25.89-14.77-21.14-13.46-42.05-27.29-63.06-40.94-10.74-6.98-19.61-16.29-29.78-23.98-28.56-21.57-60.94-36.03-93.32-50.52-2.52-1.13-5.02-2.3-7.33-3.9,18.17,6.06,36.08,12.72,53.51,20.7,25.37,11.61,47.12,28.87,69.95,44.5,24.82,16.98,50.65,32.34,77.4,46.09,3.11,1.6,7.31,5.02,9.95,2.28,2.46-2.56-.73-6.93-2.38-10.01-11.12-20.75-28.08-35.26-49.17-45.2-6.69-3.16-13.4-6.29-21.6-10.14Z"/><path class="cls-1" d="M508.1,310.4c-14.56,21.59-12.8,45.02-15.06,67.59-1.54,15.41-4.97,30.19-11.5,44.32-11.06,23.96-20.98,48.39-29.57,73.37-3.44,10.01-5.12,20.03-4.74,30.53.5,13.63-1.31,27.14-2.24,40.7-.22,3.25-.5,9.13-3.39,8.6-3.67-.67-.59-5.54-.12-8.35,2.61-15.61,3.43-31.23,2.61-47.05-.65-12.47,3.89-23.99,7.06-35.93,6.89-25.96,19.04-49.55,29.73-73.82,2.81-6.38,4.8-12.86,6.66-19.55,2.34-8.41.63-16.67.68-24.97.11-19.79,5.49-37.82,16.82-54.03.21-.29.73-.36,3.05-1.41Z"/><path class="cls-1" d="M639,774.33c11.4-7.46,24.2-10.68,36.62-14.87,12.31-4.15,25.13-6.96,36.19-14.39-66.41,3.01-124.49,28.28-178.82,68.58,3.18-7.08,7.74-10.31,12.13-13.49,23.6-17.08,49.29-30.32,76.35-40.95,25.47-10.01,51.64-17.11,79.07-18.91,4.54-.3,9.06-.52,13.56.34,2.15.41,4.49.69,4.86,3.42.34,2.5-1.35,4.05-3.27,5.16-2.24,1.29-4.56,2.5-6.97,3.41-21.85,8.21-44.07,15.28-66.63,21.25-1,.27-2.06.3-3.1.45Z"/><path class="cls-1" d="M623.4,713.46c6.57-6.11,13.41-11.96,19.64-18.4,9.63-9.95,18.53-20.56,25.94-32.32,1.5-2.37,2.89-4.83,4.13-7.35,9.42-19.22,1.52-33.83-19.82-36.74-18.9-2.58-42.86,11.26-50.12,29.05-.93,2.29-1.3,4.82-2.04,7.65-2.97-2.04-2.38-4.5-1.77-6.99,5.28-21.5,45.27-48.09,73.18-26.88,8.48,6.45,11.56,14.86,9.02,25.16-.93,3.75-2.08,7.58-3.89,10.96-11.61,21.71-27.64,39.61-47.33,54.27-1.03.77-2.21,1.34-3.35,1.97-.71.39-1.47.71-2.21,1.06l-1.38-1.47Z"/><path class="cls-1" d="M607.85,908.7c4.62.06,6.18,2.69,7.69,4.9,6.75,9.84,12.56,20.23,16.5,31.55,1.29,3.69,2.65,7.85-.81,10.92-3.63,3.22-7.42.63-10.81-1.12-7.38-3.8-13.68-9.17-19.44-15.04-21.84-22.23-43.15-44.97-65.51-66.68-1.49-1.45-3.32-2.85-3.63-6,3.64.95,6.17,3.14,8.68,5.25,17.43,14.65,33.02,31.19,48.55,47.78,9.18,9.8,18.37,19.57,29.24,27.57,1.56,1.15,3.17,2.3,4.91,3.14,1.63.78,3.4,2.62,5.27.84,1.5-1.43.43-3.3-.07-4.89-3.89-12.31-10.5-23.22-17.57-33.88-.81-1.22-1.66-2.4-3-4.33Z"/><path class="cls-1" d="M498.47,858.55c6.85,8.48,11.62,18.14,16.65,27.65,12.7,23.99,27.47,46.59,45.18,67.21,5.1,5.94,10.63,11.38,17.69,15.03,4.3,2.23,6.19.69,5.89-3.83-.46-6.97-2.23-13.64-5.23-19.97-.68-1.43-2.41-3.43-.22-4.43,2.01-.92,2.75,1.59,3.47,3.04,3.72,7.47,5.81,15.39,5.62,23.77-.16,6.69-3.62,8.9-9.87,6.4-6.98-2.79-12.5-7.7-17.6-13.03-21.14-22.09-37.16-47.73-51.18-74.72-4.47-8.61-8.71-17.34-10.39-27.1Z"/><path class="cls-1" d="M657.96,874.22c9.29,2.8,18.39,5.86,27.84,7.73,8.25,1.64,16.48,3.42,24.74,5.02,1.73.33,4.12,1.65,5.13-.68.74-1.73-1.31-3-2.48-4.19-13.28-13.51-28.91-23.45-46.93-29.08-35.81-11.19-72.21-19.14-110.09-17.38-1.15.05-2.57.73-3.65-1.21,2.15-2,4.95-2.29,7.59-2.32,47.42-.5,92.72,8.45,134.69,31.3,8.75,4.76,16.37,11.27,22.96,18.84,1.73,1.99,3.52,4.22,2.09,6.97-1.3,2.5-4.03,2.27-6.38,2.12-13.27-.87-25.95-4.38-38.25-9.22-5.87-2.31-12.24-3.55-17.26-7.91Z"/><path class="cls-1" d="M600.97,790.4c10.97-3.8,21.81-1.72,32.58-.01,23.38,3.7,44.87,12.29,64.15,26.12,3.31,2.37,6.27,5.28,9.14,8.19,2.01,2.03,3.42,4.61,2.31,7.65-1.19,3.25-3.9,4.39-7.13,4.67-5.63.49-11.22.1-16.74-1.02-5.36-1.08-11.04-.7-17.56-3.71,6.02-1.25,10.59-.4,15.14-.18,4.74.24,9.48.71,14.21.56,2.37-.07,5.87.61,6.74-2.42.71-2.46-1.99-4.13-3.77-5.6-3.16-2.61-6.4-5.15-9.83-7.38-23.34-15.21-49.21-22.63-76.78-24.71-4.22-.32-8.55.11-12.47-2.16Z"/><path class="cls-1" d="M542.3,406.6c-45.57,23.07-75.73,58.44-86.5,109.29-4.67-35.93,42.3-101.32,86.5-109.29Z"/><path class="cls-1" d="M530.11,683.74c-7.03,1.37-10.9-1.5-14.57-4.17-22.83-16.65-40.46-37.53-51.13-63.96-4.86-12.04-8.75-24.35-9.62-37.68,12.48,43.61,33.34,81.22,75.31,105.81Z"/><path class="cls-1" d="M527.97,937.89c3.72,5.93,3.53,12.25,1.5,18.48-1.35,4.14-4.94,4.5-8.59,3.32-3.98-1.28-7.25-3.82-10.25-6.67-11.1-10.54-18.44-23.27-22.12-38.93-4.77,6.55-5.11,15.08-11.9,19.62,12.3-20.16,15.12-41.79,10.52-64.69,3.49,8.24,2.83,16.88,3.18,25.46.78,19.55,6.28,37.42,19.84,52.17,2.95,3.2,6.11,6.13,9.96,8.22,4.03,2.2,6.4,1.1,7.5-3.48,1.08-4.52.27-8.95.37-13.5Z"/><path class="cls-1" d="M143.29,1031.63c-1.21.74-2.41,1.49-3.58,2.2-2.29-1.94.88-4.11-.6-6.17-5.7.99-10.29,4.12-14.84,7.39-1.17.84-2.64,2.29-3.95.71-1.26-1.52.53-2.64,1.32-3.84,4.48-6.86,11.32-9.73,18.92-11.37,1.81-.39,4.01.24,5.28-2.03-3.32-4.33-10.01.18-13.55-4.97,4.42-2.05,7.77,1.23,11.54,1.28,3.32.04,5.4-.54,7.89-2.71,6.13-5.36,12.82-9.6,21.72-7.1,3.04.86,4.66,2.3,3.94,5.46-.74,3.29-3.05,2.82-5.57,2.17-5.67-1.46-11.1-.5-16.24,2.17-1.12.59-1.98,1.84-3.14,2.19-5.29,1.63,2.44,7.07-2.25,8.15-3.96.91-6.11,2.81-6.92,6.59,0,0,.03-.14.03-.14Z"/><path class="cls-1" d="M654.25,646.74c2.74,18.08-34.92,73.27-53.88,78.45,21.19-24.74,43.15-47.74,53.88-78.45Z"/><path class="cls-1" d="M410.2,943.13c-12.63-34.54-13.44-69.59-4.87-105.05-3.88,35.3-2.17,70.33,4.87,105.05Z"/><path class="cls-1" d="M599.5,386.34c-5.94-2.65-10.25-5.17-14.9-6.54-23.08-6.78-45.83-7.96-67.38,5.31-.87.54-1.85,1.62-2.8.54-1.05-1.2-.19-2.43.65-3.43,1.98-2.36,4.39-4.21,7.22-5.36,23.9-9.66,47.44-9.57,70.47,2.81,2.27,1.22,4.27,2.87,6.74,6.67Z"/><path class="cls-1" d="M524.99,439.1c-7.33,5.64-14.96,10.93-21.93,17-15.54,13.54-25.43,30.8-31.51,50.37-.41,1.31-.12,3.51-2.37,3.05-1.78-.36-1.93-2.22-1.74-3.75.24-1.91.51-3.88,1.18-5.67,9.33-25.11,24.28-45.62,48.24-58.64,2.41-1.31,5.06-2.19,7.61-3.27.18.31.35.61.53.92Z"/><path class="cls-1" d="M445.85,662.06c-3.8-2.25-4.58-5.02-5.71-7.49-4.28-9.43-6.62-19.6-11.33-28.91-2.22-4.39.02-9.36,1.29-13.92,1.67-6.02,4.86-11.28,9.12-17.28.68,6.66-1.14,11.72-2.98,16.59-2.21,5.86-1.77,11.25.35,16.98,3.96,10.67,7.93,21.38,9.25,34.02Z"/><path class="cls-1" d="M624.32,680.61c-17.04,23.98-36.25,45.51-64.42,56.92,24.8-15.22,44.07-36.68,64.42-56.92Z"/><path class="cls-1" d="M536.71,456.74c-6.91,3.36-12.52,5.62-17.67,8.67-15.83,9.35-29.82,20.56-36.16,38.83-.37,1.08-.79,2.19-2.11,1.77-.67-.21-1.41-1.09-1.6-1.81-.57-2.15-.22-4.29.82-6.27,11.47-21.94,29.32-35.67,53.3-41.47.58-.14,1.25.09,3.42.28Z"/><path class="cls-1" d="M361.89,445.47c8.47-.01,14.27,3.78,19.23,8.54,11.5,11.04,20.96,24.14,33.75,33.92,1,.77,2.16,1.9,1.38,3.28-1.06,1.86-2.65.89-3.9.13-6.7-4.08-12.4-9.38-17.48-15.28-9.27-10.78-17.63-22.52-31.47-28.18-.44-.18-.63-.97-1.51-2.41Z"/><path class="cls-1" d="M543.43,484.37c-7.47.45-14.45-.64-21.13,1.6-11.61,3.89-22.5,8.82-28.51,20.53-.39.77-.76,1.59-1.85,1.45-1.34-.18-1.68-1.27-1.83-2.32-.25-1.79.47-3.37,1.28-4.92,6.89-13.32,31.59-24.14,46-20.11,2.03.57,4.25.87,6.04,3.79Z"/><path class="cls-1" d="M586.48,518.06c.72-.76,1.38-1.59,2.18-2.25,16.74-13.82,22.18-32.71,23.94-53.3.14-1.66-1.08-4.52,1.91-4.56,2.19-.03,2.06,2.57,2.13,4.13.84,20.12-5.96,45.17-30.15,55.98Z"/><path class="cls-1" d="M534.51,668.69c-15.32-2.43-46.28-39.85-50.92-61.1,7.56,11.11,14.26,22.8,22.67,33.34,8.29,10.39,19.18,18.17,28.25,27.76Z"/><path class="cls-1" d="M452.32,665.98c11.89,18.69,25.14,36.57,30.57,58.52-10.97-19.13-23.3-37.54-30.57-58.52Z"/><path class="cls-1" d="M388.84,863.57c-4.5,25.29-5.03,50.55.49,76.71-9.83-11.85-10.21-64.92-.49-76.71Z"/><path class="cls-1" d="M261.89,1079.18c5.67-10.46,7.89-20.24,3.41-30.68-1.43-3.32.47-5.72,2.99-6.92,2.65-1.27,4.17,1.01,5.36,3.29,5.51,10.56-.81,29.2-11.76,34.31Z"/><path class="cls-1" d="M592.02,394.24c5.56-1.27,8.89,1.09,12,3.78,11.79,10.16,21,33.2,19.61,50.27-5.93-21.07-12.25-40.76-31.62-54.04Z"/><path class="cls-1" d="M491.09,593.53c23.97,10.99,49.71,14.37,75.43,17.88-26.82,1.22-52.25-3.55-75.43-17.88Z"/><path class="cls-1" d="M563.44,855.59c26.58-.23,50.64,6.16,74.76,12.13-24.71-2.38-49.09-6.76-74.76-12.13Z"/><path class="cls-1" d="M165.79,409.11c-2.06-4.77.58-7.39,3.41-9.23,14.93-9.69,30.8-12.58,49.44-5.73-19.8.5-38.34-.27-52.85,14.96Z"/><path class="cls-1" d="M201.06,1027.63c11.6,6.73,23.16,7.98,35.54,6.16,12.14-1.78,21.18,7.39,23.36,23.64-3.11-4.8-4.77-8.94-7.43-12.49-4.8-6.4-10.68-8.94-18.55-7.33-9.64,1.96-18.87,0-27.73-3.79-2.17-.93-5.01-1.69-5.18-6.19Z"/><path class="cls-1" d="M570.75,819.26c23.74-3.7,47.33.54,70.96,4.23-.05.75-.11,1.49-.16,2.24-23.74-2.17-47.49-4.34-70.79-6.47Z"/><path class="cls-1" d="M96.6,1008.59c12.92-2.2,20.97-14.33,33.78-16.07,2.6-.35,5.08-.79,7.65.12,1.92.68,3.79,1.25,3.32,3.91-.45,2.58-2.32,2.88-4.4,2.65-5.42-.6-10.88-.47-15.99,1.22-2.92.97-8.66.55-6.29,6.93.42,1.12-.89,1.21-1.66,1.21-5.47.04-10.95.02-16.42.02Z"/><path class="cls-1" d="M589.68,535.2c3.88-2.65,7.81-5.24,11.63-7.97,10.47-7.48,18.89-16.37,20.27-30.03.15-1.45.13-3.58,2.04-3.48,1.94.1,1.6,2.22,1.63,3.67.15,6.91-1.81,13.24-5.89,18.76-7.4,10.03-17.53,16.14-29.68,19.05Z"/><path class="cls-1" d="M478.9,582.56c-10.21-4.95-16.34-13.63-21.04-23.48-4.35-9.11-6.89-18.64-6.11-28.86.08-1.07.06-2.45,1.35-2.62,1.78-.24,2.01,1.34,1.99,2.59-.34,20.51,9.77,36.28,22.8,50.75.42.47.67,1.08,1,1.63Z"/><path class="cls-1" d="M497.58,879.16c2.76,5.34,5.55,10.66,8.27,16.01,5.47,10.78,10.21,22.01,18.63,31.02.83.89,2.3,1.99,1.2,3.23-1.49,1.67-2.75-.08-3.75-1.01-4-3.7-7.19-8.08-9.93-12.75-6.66-11.36-12.71-23-14.42-36.5Z"/><path class="cls-1" d="M380.04,740.29c14.54-14.55,34.42-24.6,35.53-49,.18,9.24-.6,17.99-5.39,25.78-7.12,11.58-20.06,15.54-30.14,23.22Z"/><path class="cls-1" d="M539.16,507.39c-13.75-10.39-24.33-5.2-34.4,3.44-1.08.93-2.12,2.59-3.81,1.32-1.68-1.26-.55-2.69.23-3.98,4.86-8.09,21.16-13.97,29.96-10.82,4.23,1.51,5.77,3.19,8.02,10.05Z"/><path class="cls-1" d="M533.38,888.6c3.05,3.55,6.17,7.05,9.15,10.67,7.38,8.99,14.91,17.84,23.6,25.63,1.09.98,2.82,2.05,1.75,3.65-1.11,1.65-2.75.59-3.9-.41-12.69-11.08-23.86-23.41-31.91-38.29.44-.42.88-.83,1.32-1.25Z"/><path class="cls-1" d="M572.03,714.3c-8.66,13.06-37.03,27.66-47.34,24.15,17.54-3.6,30.61-15.92,47.34-24.15Z"/><path class="cls-1" d="M437.66,835.03c-3.93-2.58-6.03-6.57-8.16-10.42-5.05-9.14-8.26-18.96-9.97-29.25-.26-1.56-.99-4,1.04-4.56,2.48-.69,2.29,2.04,2.66,3.48,3.29,13.03,7.86,25.55,14.3,37.36.5.92,1.13,1.88.13,3.39Z"/><path class="cls-1" d="M167.6,1031.17c3.18,5.21,8.25,3.21,12.82,3.57,3.78.3-1.27-6.23,3.62-4.32,2.37.93,4.45,2.79,6.86,3.38,1.7.42,3.74-.58,6.79-1.17-1.87,2.77-3.67,5.15-6.17,4.11-5.03-2.11-9.3,0-13.48,1.66-6.45,2.55-10.83.09-14.56-4.73-3.13-4.05-6.85-7.94-6.2-14.4,5.69,2.75,4.84,10.14,10.39,11.95l-.08-.05Z"/><path class="cls-1" d="M591.87,793.79c-15.25,5.98-30.38,12.2-46,20.49,5.7-9.48,33.57-21.99,46-20.49Z"/><path class="cls-1" d="M407.94,455.07c3.35,10.24,8.43,18.86,16.82,25.22,1.57,1.19,3.7,5.27,6.44.57.95-1.63,2.32.04,2.89,1.03,1.06,1.85,1.27,4-1.1,4.88-1.5.56-3.45.5-5.06.11-9.53-2.29-21.33-18.38-20.76-28.18.07-1.22.5-2.42.77-3.63Z"/><path class="cls-1" d="M489.02,755.53c14.4,13.96,17.3,32.13,17.97,51.1-5.54-17.16-7.19-35.73-17.97-51.1Z"/><path class="cls-1" d="M425.04,648.06c-4.81,17.19,3.59,34.68-.92,51.88-2.23-17.35-7.55-34.77.92-51.88Z"/><path class="cls-1" d="M464.68,861.22c-12.2-7.79-20.53-28.42-15.48-37.98,2.37,13.26,9.25,24.69,15.48,37.98Z"/><path class="cls-1" d="M587.32,439.17c-2.49-2.29-2.29-4.87-2.92-7.05-3.2-11.02-10.67-17.97-20.73-22.64-1.22-.56-3.51-.29-2.9-2.55.41-1.54,2.13-1.1,3.37-.96,13.1,1.45,25.93,19.44,23.18,33.2Z"/><path class="cls-1" d="M502.64,534.55c-8.12-4.47-16.13-7.18-24.8-7.68-3.25-.19-6.42-.16-9.63.3-1.48.21-3.25.31-3.44-1.81-.14-1.52,1.23-2.1,2.44-2.6,8.38-3.41,31.74,1.26,35.42,11.78Z"/><path class="cls-1" d="M534.16,568.74c-14.62-3.48-29.56-6.27-39.97-18.85,12.9,7.2,27.3,11.15,39.97,18.85Z"/><path class="cls-1" d="M575.67,459.02c-.93-3.95-1.7-7.95-2.84-11.84-2.12-7.19-5.63-13.53-11.93-17.98-1.17-.83-3.18-1.62-2.06-3.33.89-1.37,2.77-.65,4.17,0,5.12,2.42,8.45,6.61,10.98,11.48,3.57,6.87,4.62,14.11,1.69,21.66Z"/><path class="cls-1" d="M576.32,489.04c-.07-3.14,2.18-5.1,3.59-7.35,4.75-7.58,7.57-15.86,9.38-24.54.27-1.28.54-2.75,1.98-3.03,1.47-.28,1.45,1.14,1.66,2.15,1.92,9.42-7.6,28.34-16.61,32.77Z"/><path class="cls-1" d="M529.45,515.11c.21,3.06-1,4.88-3.31,5.42-3.37.78-1.73-1.7-1.84-3.16-.23-3.17-2.48-3.52-4.58-2.32-2.54,1.46-6.52,2.54-5.05,6.75.5,1.44,2.92,2.4.32,3.81-1.97,1.07-3.84.27-5.05-1.54-.56-.85-.93-1.98-.96-2.99-.18-6.02,9.66-13.33,15.4-11.46,2.89.94,4.7,2.92,5.07,5.5Z"/><path class="cls-1" d="M167.68,1031.21c4.41-4.69,8.82-9.39,13.25-14.09.01-.01-.17.17-.15.15,4.23-.55,8.44-1.35,12.67-1.52,2.26-.09,4.89.38,6.09,2.89.82,1.71-.62,2.87-1.62,3.9-2.14,2.2-3.85.22-5.69-.76-4.15-2.22-7.56-.8-11.36,1.55-4.34,2.69-6.62,9-13.23,7.85-.03-.02.05.03.05.03Z"/><path class="cls-1" d="M401.97,738.06c-10.6,9.15-21.91,14.69-31.13,24.19-.24-8.43,18.31-22.65,31.13-24.19Z"/><path class="cls-1" d="M197.55,614.12c7.82-5.15,13.81-11.29,22.29-13.5-6.77,5.5-13.52,11.02-20.31,16.48-.96.77-2.12,1.63-3.42.45-1.05-.96-1.39-2.26-1.12-3.54,1.59-7.49,5.29-13.71,11.36-18.45-2.18,6.14-6.94,11.01-8.79,18.56Z"/><path class="cls-1" d="M240.17,688.76c5.69-19.91,21.74-28.02,36.83-18.65-17.59-3.89-27.91,5.08-36.83,18.65Z"/><path class="cls-1" d="M371.88,887.71c-2.13,15.71-.28,30.2,2.75,45.76-7.96-13.03-9.72-38.41-2.75-45.76Z"/><path class="cls-1" d="M559.78,555.32c-16.55-.48-31.96-4.89-46.16-13.53,15.15,5.31,30.87,8.68,46.16,13.53Z"/><path class="cls-1" d="M600.73,469.12c1.48-10.79,2.2-20.8,1.71-30.84-.05-1.09.27-2.34,1.52-2.45,1.23-.11,1.62,1.1,2.08,2.09,3.3,7.07.69,24.43-5.32,31.2Z"/><path class="cls-1" d="M541.58,651.59c-8.97-.75-22.78-17.41-25.5-29.98,8.24,9.8,15.39,20.5,25.5,29.98Z"/><path class="cls-1" d="M414.04,497.27c7.4,2.97,12.34,8.33,15.46,15.44,1.06,2.43,1.36,5,.53,7.56-.58,1.78-.88,4.54-3.14,4.29-3.21-.35-1.19-3.08-.99-4.6.66-5-1.71-8.68-4.58-12.29-2.62-3.29-6.08-5.97-7.29-10.41Z"/><path class="cls-1" d="M236.35,418.75c-2.34.04-3.17-1.98-4.39-3.32-4.84-5.31-9.78-10.37-17.41-11.4-1.09-.15-2.35-.46-2.39-1.72-.06-1.79,1.52-1.68,2.77-1.86,8.78-1.26,19.23,7.64,21.42,18.31Z"/><path class="cls-1" d="M630.14,576.36c-11.64,3.25-23.22,5.01-33.85,12.09,2.57-8.85,21.98-15.31,33.85-12.09Z"/><path class="cls-1" d="M242.7,1029.64c-9.95-5.41-19.46-4.94-29.02-3.95-.88.09-1.76.18-2.2-.75-.61-1.29.36-1.97,1.22-2.6,6.25-4.53,24.45-.75,30.01,7.3Z"/><path class="cls-1" d="M312.96,427.17c8.4-2.85,19.05.4,22.62,6.06,1.03,1.63,2.39,3.58.19,5.1-1.87,1.3-2.5-.91-3.35-1.97-2.26-2.82-5.33-4.29-8.61-5.45-3.19-1.13-6.41-2.21-10.85-3.74Z"/><path class="cls-1" d="M191.79,966.6c.17,4.06-2.43,6.92-4.77,9.58-6.7,7.63-13.96,14.67-22.69,20.1-3.56,2.21-6.67,2.45-10.69.15,17.04-1.02,24.62-14.32,34.31-24.71,1.44-1.55,1.93-3.9,4.01-4.96,0,0-.16-.16-.16-.16Z"/><path class="cls-1" d="M214.07,1008.82c7.01-5.52,14.76-10.01,21.12-17.88-.59,8.43-12.45,18.15-21.12,17.88Z"/><path class="cls-1" d="M486.5,575.89c-6.58-2.24-12.15-6.16-16.62-11.63-.96-1.17-2.03-2.66-.31-3.89,1.24-.89,2.47.1,3.38,1.06,4.57,4.85,9.12,9.73,13.55,14.47Z"/><path class="cls-1" d="M364.89,459.19c-8.93-2.25-14.41-10.04-22.44-13.73,9.48,1.37,16.61,6.51,22.44,13.73Z"/><path class="cls-1" d="M188.41,983.89c-5.96,6.42-12.73,11.77-20.75,15.41-.35-.47-.7-.94-1.05-1.42,6.89-5.17,13.78-10.34,20.67-15.51.37.51.75,1.01,1.12,1.52Z"/><path class="cls-1" d="M306.33,573.58c-9.44,1.13-18.87,2.26-28.31,3.39,8.95-4.72,18.51-5.17,28.31-3.39Z"/><path class="cls-1" d="M161.67,1002.42c-6.55,4.8-15.85-.27-21.13,7.13,4.1-7.77,14.04-10.99,21.13-7.13Z"/><path class="cls-1" d="M245.05,1001.83c-.74,7.76,2.36,14.59,6.41,22.84-8.18-5.86-10.25-14.34-6.41-22.84Z"/><path class="cls-1" d="M475.63,551.72c-2.86.69-4.49-.63-5.98-1.71-1.82-1.32-6.2-2.01-4.04-5.05,1.82-2.56,4.56.6,6.56,2,1.55,1.08,3.12,2.33,3.45,4.77Z"/><path class="cls-1" d="M356.84,907.3c1.2,6.37,2.52,12.66,3.54,19.03-1.31-6.35-6.47-11.82-3.54-19.03Z"/><path class="cls-1" d="M262.56,577.03c-4.85,2.23-9.68,4.35-16.23,3.65,5.47-4.7,11.04-3.48,16.23-3.65Z"/><path class="cls-1" d="M204.26,982.96c-.64,4.83.79,9.54.92,15.55-4.92-5.94-2.51-10.83-.92-15.55Z"/><path class="cls-1" d="M143.26,1031.77c3.71-3.85,8.53.49,12.41-2.08-3.64,4.57-7.92,3.74-12.36,1.9-.02.04-.05.17-.05.17Z"/><path class="cls-1" d="M611.63,567.22c-4.47,2.71-8,4.85-11.93,7.23,2.39-5.45,4.09-6.51,11.93-7.23Z"/></svg>